<svg version="1" xmlns="http://www.w3.org/2000/svg" width="1280" height="1280" viewBox="0 0 960.000000 960.000000"><path d="M228.1 6.1c-.6 3.4-2 8-3.2 10.3-1.2 2.3-3.9 7.4-5.9 11.4-2.1 3.9-6.4 10-9.6 13.5-3.3 3.4-7.2 9-8.8 12.2-6.1 12.7-13.9 26.1-17.1 29.4-2.4 2.5-4.4 3.4-7.6 3.8-4.5.5-20.3-2.6-36.9-7.2-4.7-1.3-11.4-2.9-15-3.5-3.6-.6-10.3-2.2-15-3.5-5.9-1.6-14.5-2.8-28-3.9-26.5-2.2-26-2.2-26 .9 0 3.7-1.8 3.1-2.3-.8-.2-1.7-.5-.2-.5 3.5L52 79H38V65.2l-3.2-.5c-9-1.6-14.8-1.9-14.8-.8 0 .7-2.7 1.1-7.5 1.1H5v3.5c0 1.9.5 3.5 1 3.5.6 0 1 1.6 1 3.5V79h12.9l.3 8.7.3 8.8 23.8.3L68 97v7.6c0 6.8-.2 7.5-1.8 6.9-4-1.5-15.6-3.8-28.7-5.5-7.7-1.1-17.6-2.6-22-3.5-4.4-.8-8.6-1.5-9.2-1.5-1 0-1.3 3.4-1.3 13.9v13.9l4-.5c3.2-.5 4-.2 4 1 0 .8-.5 1.7-1.2 1.9-.6.2-1.3 1.4-1.5 2.6-.2 1.8.2 2.2 2.6 2.2s2.8-.4 2.4-1.9c-.5-1.9.9-3.4 3.7-3.8.8-.1 1.6-.7 1.8-1.2.2-.6 1-1.1 1.8-1.1 1 0 1.4 1.2 1.4 4 0 3.1-.4 4-1.7 4.1-1 .1 2.5.7 7.7 1.5 5.4.8 12.4 1.1 16.3.7l6.7-.6v3.2c0 1.7.4 3.1.9 3.1 1.3 0 7.1-5.9 7.2-7.3 0-.7.9.7 1.9 3 2 4.5 3.4 5.4 4.4 2.8.4-1 2-1.5 5.1-1.5 3.3 0 4.5.4 4.5 1.5 0 .9.9 1.5 2.5 1.5 1.4 0 2.5.4 2.5 1 0 .5.7 1 1.5 1s1.5-.5 1.5-1c0-.6 2.2-1 4.9-1 4.4 0 5.2.4 8.5 4 2 2.2 3.9 4 4.3 4 1.5-.1 4.5-5.1 3.9-6.7-.6-1.4 1.6-1.5 20.6-.9 12.5.4 21.4 1 21.6 1.6.2.6 6.7 1 16.3 1H181v2.5c0 2.3.3 2.5 4.9 2.5 4.2 0 5.4.5 8 3.1 1.7 1.7 3.1 3.5 3.1 4s.7.9 1.5.9 1.5.9 1.5 1.9c0 1.1.5 2.3 1.1 2.6.6.4.8 1.2.6 1.9-.3.7.4 1.3 1.4 1.3 1.1.1 1.9-.5 1.9-1.3s.5-1.4 1-1.4c.6 0 1 .9 1 2 0 1.4.7 2 2.3 2 2.8.1 7.4 3.4 5.9 4.4-.7.4-3.1 1.1-5.4 1.5-3.2.7-3.6.9-1.5 1 2.5.1 2.7.4 2.7 4.1 0 3.8.2 4 4.3 5.1 2.3.7 4.6 1.6 5.2 2.1 1.7 1.5-1.1 3-5.9 3-2.5.1-4.6.5-4.6 1 0 .4-1.3.8-3 .8-1.9 0-3 .5-3 1.4 0 .9-1.2 1.6-3.2 1.8-2.5.2-3.4.8-3.6 2.5-.3 1.9-1 2.3-4.3 2.3-3.7 0-3.9.2-3.9 3s-.2 3-4 3c-2.2 0-4 .4-4 1 0 1.8-7.2 1.1-8.5-.7-1.3-1.7-1.4-1.7-3.2 0-1.1.9-2.7 1.7-3.6 1.7-1.5 0-3.4 3.5-2.9 5.3.1.5-.1.6-.6.3s-1.8.1-2.8.9c-2.8 2.1-10.4 1.9-12-.3-.7-.9-2.4-1.7-3.9-1.7-2-.1-2.5.3-2.2 1.7.4 1.4-.1 1.8-2.4 1.8-2.7 0-2.9.3-2.9 4 0 3.8-.2 4-3 4s-3-.2-3-4c0-3.9-.1-4-3.7-4.1-2.1 0-4.7-.3-5.8-.6-4.6-1.2-11.5-1.5-11.5-.4 0 .6.7 1.1 1.5 1.1 1.1 0 1.5 1.1 1.5 4 0 3.3.3 4 2 4 1.9 0 2 .5 1.3 12-.4 8.8-.3 12 .5 12 .7 0 1.2-.9 1.2-2 0-2.4 2.7-2.7 3.2-.3.7 3.7-.4 10.3-1.8 10.3-.8 0-1.4.7-1.4 1.5 0 1.1-1.2 1.5-5 1.5-3.6 0-5.2-.4-5.6-1.5-.4-.8-1.2-1.5-2-1.5-1 0-1.4-1.2-1.4-4v-4h9v-8c0-4.7-.4-8-1-8-.5 0-1-1.8-1-4 0-3.8-.2-4-3-4h-3v8c0 7.8-.1 8-2.4 8-2.4 0-8.6 5.1-8.6 7.1 0 .5-1.1.9-2.4.9-1.3 0-2.6.7-3 1.5-.4 1.1-2 1.5-5.6 1.5h-5v10.3l5.5-.6c4.4-.4 5.5-.3 5.5.9 0 .8.7 1.7 1.5 2 1 .4 1.5 2 1.5 4.5 0 2.1.5 3.9 1 3.9.6 0 1-.7 1-1.5 0-1.1 1.1-1.5 4-1.5h4v-4.1c0-6.5 2.4-4.4 2.8 2.5.2 3.2.7 5.4 1.3 5.1.5-.4.9 1.1.9 3.4v4.1h9.9l.3 3.7c.3 3.5.6 3.8 3.6 4.1 3.1.3 3.2.2 3.2-3.7 0-2.9.4-4.1 1.4-4.1 1.5 0 3.2-3.6 2.7-5.5-.1-.5.1-.7.4-.3.4.4 1.6.3 2.6-.3 1.4-.7 1.9-2.1 1.9-5 0-3.7.2-3.9 2-2.9 1.1.6 2 1.7 2 2.5s.5 1.5 1 1.5c.6 0 1 2.2 1 5 0 4.7-.2 5-2.5 5-2.2 0-2.5.4-2.5 3.5 0 3 .3 3.5 2.3 3.5 1.2 0 1.7.3 1.1.8-.6.4-1.6 1.7-2.3 2.9-1.1 2.2-1 2.3 2.9 2.3 2.8 0 4 .4 4 1.4 0 .8-.6 1.7-1.2 2-.7.3-.3.3 1 0 2-.5 2.2-.2 2.2 3.5 0 2.3-.4 4.1-1 4.1-.5 0-1 .7-1 1.5 0 2-1 1.9-2.6-.3-1.3-1.6-1.5-1.6-2.8.1-.8 1-2.3 1.7-3.3 1.5-1.5-.3-1.7-1.1-1.4-5.7.2-4.1 0-5.2-1-4.9-.8.3-1.7 2.2-2 4.4l-.6 3.9-.2-3.5c-.2-3.5-1.9-8.6-2-6.2-.1.9-.7.9-2.4-.3-1.3-.8-2.7-1.2-3.2-.8-.4.5-.6.3-.2-.2.3-.6.2-1.7-.3-2.5-.7-1.1-1-.7-1.5 1.3-.4 1.5-1.1 2.4-1.6 2.1-.5-.3-.9 0-.9.5 0 .6.5 1.1 1 1.1.6 0 1 .5 1 1.2 0 .9-.3.9-1.2 0-1.5-1.5-6.1-1.5-7.6 0s-1.6 2.8-.2 2.8c.6 0 .9-.5.8-1.1-.4-1.8 1.9-2.2 2.5-.4.8 2-.2 4.5-1.8 4.5-.8 0-1.1.8-.8 2 .4 1.4 0 2-1 2-1.8 0-4-3.3-3-4.4.3-.3.1-.6-.5-.6-.5 0-1.2.5-1.4 1-.2.6-.8.2-1.5-.9-1-1.7-.9-1.8 1-1.5 1.2.2 1.6.2 1-.2-.7-.3-1.3-1.3-1.3-2.1 0-1.4.3-1.3 2.2.3 1.2 1 1.8 1.3 1.3.5-.4-.8-.2-1.7.6-2.2.9-.5.6-.7-1.2-.5-1.3.1-3.1.6-3.8 1-.7.5-1.6.4-2-.1-.8-1.2-5.3-1.5-4.6-.2.4.5 1.5.9 2.6.9 1 0 1.9.5 1.9 1.1 0 .6-.8.8-1.9.4-1.3-.4-2.4 0-3.1 1.2-1.1 1.6-1.1 1.7-.6 0 .6-2-.2-4.7-1.6-4.7-.5 0-2 1.2-3.4 2.7-1.7 1.9-2.7 2.4-3.1 1.5-.6-1.6-16.3-1.7-16.3-.1 0 .8-.5.7-1.6-.2-1.4-1.1-1.8-1-3 .5-.7 1-1.6 2.4-1.9 3-.3.8-.7.7-1.1-.2-.7-1.4-8.4-1.7-8.4-.2 0 .5-.7 1-1.5 1-1.1 0-1.5-1.1-1.5-4 0-3.6-.2-4-2.5-4-1.7 0-2.5.6-2.5 1.7 0 1.4-.2 1.5-1.2.4-1.1-1.1-1.1-1.4 0-1.8 2.6-1 1-2.3-2.8-2.3-2.2 0-4 .4-4 1 0 .5.9 1 1.9 1 1.9 0 1.9.2.4 4-1.2 3-1.9 3.7-2.5 2.8-.8-1-1.1-1-1.5-.1-.5 1.5-3.3 1.8-3.3.4 0-2.2-3.4-4.1-7.1-4.1-3.9 0-3.9 0-3.9-4 0-4.5-.8-4.9-3.5-2-1.8 2-1.8 2.1.1 3.5 1.5 1.1 1.7 1.7.8 3.2-1.2 2-1.3 2-8.4 2.2l-5 .1v52.1l5-.2c3.5-.2 5.5.2 6.8 1.4 1 .9 2.4 1.7 3 1.7 1.4 0 1.3-.8 1.2 14.7l-.1 12.3h2.4c2.1 0 2.5.6 3.1 3.9.9 5.6 2.1 5.8 1.9.3-.1-2.6.1-3.7.3-2.5.4 1.8 1.2 2.3 3.9 2.3 1.9 0 4.6-.5 6.2-1.1 2.2-.8 2.4-1.2 1.3-1.9-1.3-.8-1.2-1 .3-1 1 0 1.7-.8 1.7-2 0-1.1.7-2 1.5-2s1.5.4 1.5 1c0 .5.5 1 1 1 .6 0 1-2.1 1-4.8.1-4 .2-4.5 1.3-3 1.2 1.5 1.5 1.3 3.2-1.9 1.1-2 2-4.2 2-4.9 0-.8 1.7-2.9 3.8-4.8 3.1-2.7 3.5-3.5 2.2-4-2.4-.9-3.7-.7-3 .4.3.5.2 1-.4 1-.5 0-1.3-.5-1.6-1-.4-.7-1.2-.7-2.5 0-1.1.6-2.1.6-2.4.1-.4-.5 0-1.2.6-1.4.8-.4.7-.6-.4-.6-.9-.1-2 .3-2.3.9-.9 1.5-9.7 1.1-11.9-.5-2-1.5-2-1.5 0-2.9 1.1-.9 3-1.2 4.6-.9 1.7.3 3.5 0 4.5-.8 1.4-1.2 1.5-1.2.9 0-.7 1-.3 1.2 1.3.6 1.2-.3 4.8-.8 8.1-1 5.7-.4 6-.3 5.6 1.8-.1 1.2-.1 1.6.1.9.3-.7 1-1.1 1.6-.9.9.3 1.1 4.5.9 15-.2 9.4 0 14.7.6 14.7s1.3-.6 1.5-1.3c.3-.6.6 1.2.6 4 .1 2.9.5 5.3 1 5.3s1.1 1.9 1.4 4.2c.3 2.4.8 5.6 1.1 7.3.3 1.6.3 2.2 0 1.2-.3-.9-1-1.5-1.4-1.2-.5.3-1.2-.7-1.6-2.2-1.9-8.6-2.2-9-2.3-3-.1 5.1.2 6 1.9 6.4 1.5.4 2 1.4 2 4.2 0 4.7 1 6.2 3.8 5.4 2.6-.6 2-2.3-.9-2.3-1 0-1.9-.7-1.9-1.5 0-1 1-1.5 2.8-1.5 2 0 2.3-.3 1.2-1-1.5-.9-1.6-.9 3.5-2.5 2-.6 1.9-2.4-.2-3.1-5.3-1.8-7.3-3.1-7.3-4.5 0-.9.7-2 1.6-2.3 1.1-.4 1.4-1.3 1-3-.3-1.3-.1-3.8.5-5.5 1-2.9 1.2-3 2.4-1.4.7 1 1.1 2.2.8 2.7-.4.5-.1.6.6.2.6-.4 1-2 .9-3.6-.1-1.6.6-3.7 1.5-4.8 1.9-2 2.2-4.2.7-4.2-.5 0-.7-.7-.3-1.6.6-1.5.7-1.5 1.9.1 1.3 1.7 1.4 1.7 2.1-.1.4-1 1.1-2.4 1.5-2.9.4-.6 1.9-2.4 3.3-4.1 1.4-1.8 2.5-3.7 2.5-4.3 0-1.3 2.7-1.5 3.4-.2.4.5 1 4.8 1.5 9.6.5 5.4 1.4 9.1 2.2 9.7 1.1.7 1.1 1.1.2 1.5-2.2.8-1.4 3.3 1.2 4.3 1.4.5 2.5 1.4 2.5 2 0 .5-1.1 1-2.5 1-2.2 0-2.5.4-2.5 3.4 0 1.9.5 3.8 1 4.1.6.3 1 0 1-.7 0-.9.3-.9 1 .2.5.8.8 5.8.5 11.3-.5 10.1.6 14.7 3.3 14.7 1.1 0 1.3-1 .8-4.8-1.4-11-1.4-11.2 0-11.2.8 0 1.4.8 1.4 1.7 0 .9.3 1.3.7.9 1-.9 1.6-18.4.8-20.4-1.2-2.8-2.3 1.4-2.4 8.5-.1 3.5-.5 6.3-1 6.3-1.2 0-2.4-3.7-1.7-4.9.3-.5.6-3.7.7-7.2.2-7.2 2.1-13.6 4.7-15.5.9-.7 1.4-1.4 1-1.4-.5 0 .1-.9 1.2-2 1.1-1.1 2-2.9 2-4 0-1.2.7-2 1.6-2 .9 0 2.3-1.7 3.2-4 .9-2.2 2-4 2.4-4 .5 0 .7.3.6.7-.1.5.4 2.1 1 3.6.7 1.6 1 3.3.6 3.8-.3.5 0 2.4.7 4.3.9 2.5 2 3.6 4.1 4 3.3.6 4.4.4 4-.8-.1-.4.3-1.4.9-2.2.6-.8.8-1.4.5-1.4-.4 0 .1-1.4 1.1-3 .9-1.7 2.3-3 3-3 .7 0 1.3-.6 1.3-1.3 0-.7 1.5-1.9 3.3-2.7 2.9-1.4 7.4-1.5 18.7-.7 1.4.1 3.5-.2 4.7-.6 1.9-.7 2.2-.5 1.7.8-.4.9-.3 1.5.2 1.4 2.8-.5 5.4.3 5.4 1.6 0 1.9 1.7 1.9 3.7 0 .8-.8 2-1.2 2.6-.8.7.4 3 1 5.1 1.3 5.6.7 7.4 3.8 6.8 11.7-.2 4-.8 6.3-1.6 6.3s-1.3 2.5-1.5 7.4c-.2 6.7 0 7.4 1.8 7.9 1.2.3 2.1 1.2 2.1 2.1 0 .9.5 1.6 1 1.6.6 0 1 .8 1 1.7 0 .9.6 2.4 1.4 3.2.8.9 1.6 4.1 1.7 7 .3 5.4.2 5.5-2.8 6.3-1.7.4-3.6 1.5-4.3 2.3-.7.8-2.1 1.5-3.2 1.5-1.9 0-2 .4-1.3 6.2.9 7.5.7 31-.3 31.8-.4.3-1.5 1.7-2.5 3.2-2.2 3.5-5.9 6-9.5 6.3-1.5.1-3.8.5-5.2.8-1.4.3-4.4.8-6.7 1-3.2.3-4 .1-3.6-1 .4-1-.6-1.2-4.8-.9-3 .2-7 .7-8.9 1-1.9.4-7 .3-11.3-.2-7.1-.7-7.9-.7-8.8 1-.5 1-1.4 1.8-1.9 1.8-1.3 0-4.5-3.3-6-5.9-1.2-2.4-3.7-2.6-6.4-.6-3.9 3-11.7-1.6-9.6-5.6.6-1 1.9-1.9 2.8-1.9 2.4 0 6.4-2.9 5.7-4.1-.4-.5.3-.9 1.4-.9 2.3 0 2.7 2 1 5.2-1.2 2.2-.3 4 1 1.9.7-1 1-.9 1.6.8.7 2.2 2 2.7 3 1.1.3-.5.1-1-.6-1-.8 0-.8-.4.1-1.5s1.6-1.2 2.6-.4c1 .8 1.5.5 2-1.5.3-1.3.3-3-.1-3.5-.3-.7.3-1.1 1.5-1.1 1.7 0 1.9-.4 1.4-2.5-.4-1.5-.2-2.5.5-2.5.6 0 1.1-.5 1.1-1 0-.6.8-1.8 1.9-2.9 1-1 2.1-4.1 2.5-7.2.5-3.6 1-4.9 1.6-3.9.7 1.1 1.4.9 3.5-1.2 1.5-1.5 4-2.8 5.8-3 3.1-.3 3.2-.5 3.5-5.1l.3-4.7h-4c-2.1 0-4.1.5-4.3 1.2-.3.8-1.2.4-2.6-1-1.2-1.2-2.9-2.2-3.7-2.2-1.8 0-2 2.6-.2 3.3.6.3 0 .6-1.5.6-2 .1-2.8.6-2.8 2 0 1-.6 2.4-1.4 3-2.4 2-14.1 1.8-17.5-.3-1.7-1.1-4.1.6-4.1 2.8 0 4.5-6.3 10.2-8.2 7.5-.7-1.1-1.1-1.1-1.5-.2-.5 1.4-3.3 1.8-3.3.5 0-1.1-5.8-1.3-6.5-.2-.4.6-1.5 1-2.7 1-1.6 0-1.9.5-1.5 2.1.3 1.2.3 1.9 0 1.6-.2-.3-1.8.9-3.4 2.6-1.5 1.8-2.9 2.6-2.9 1.9 0-2.2-1.5-1.2-2.9 2-.7 1.8-2.1 3.9-2.9 4.5-1 .8-1.1 1.3-.4 1.3 1.7 0 1.5 1.7-.3 2.4-1.2.4-1.5-.3-1.5-3 0-2.9.3-3.5 1.6-3 1 .4 1.4.1 1.2-.6-.3-.7-1.5-1.5-2.8-1.6-2.9-.5-10 1.5-10 2.7 0 .5-1.3 1.1-3 1.4-2.2.5-3 1.2-3 2.8 0 2-.3 2.1-8.4 1.4l-8.3-.7-.8 3.3c-.7 3.3-.7 3.4-1.5.9l-.8-2.5-.7 2.2c-.6 1.8-1.2 2.2-3.1 1.7-1.7-.4-2.6-.1-3 1-.9 2.4-4.5 4.1-5.4 2.6-.5-.7-2-.9-4.4-.5l-3.6.7v166c0 108.6.3 165.7 1 165.3.5-.3.9-1.6.8-2.8 0-1.2.9-6 2-10.7 1.1-4.7 2.3-13.5 2.6-19.5.3-6.1.7-12.1.9-13.5.8-4.9 4.2-14.5 6.2-17.6 1.2-1.7 2.7-5.8 3.4-9 3.5-16.6 4.3-20 5.2-21.6.5-1 .9-2.5.9-3.3 0-.8 1.1-4.8 2.5-8.8 3-8.4 6.5-21 6.5-23.2 0-2 4.5-12.2 9.5-21.5 1.3-2.5 2.4-5.2 2.4-6 .1-2 5.6-13.5 8.2-17.2 1.2-1.6 4.2-3.9 6.7-4.9 2.5-1.1 6.9-3.9 9.7-6.3 2.7-2.3 6.4-5.1 8-6.2 1.7-1 5.8-4 9.2-6.6 3.4-2.7 6.6-4.8 7-4.8.5 0 2.4-1.3 4.3-2.8 3.2-2.6 8-5.6 16.9-10.8 7.2-4.1 13.6-7.7 15.1-8.4.8-.4 2.9-1.4 4.5-2.2 1.7-.9 4.8-2.1 7-2.8 2.2-.7 4.5-1.6 5-2 .6-.3 3.3-1.5 6-2.5 2.8-1 7.3-2.8 10-4 2.8-1.2 6.1-2.6 7.5-3 1.4-.4 3-1.1 3.6-1.6.6-.5 1.9-1 3-1.2 1-.2 4.4-1.5 7.4-2.9s7.8-3.3 10.5-4.2c2.8-1 5.8-2.2 6.7-2.7.9-.4 5.9-2.4 11-4.4 5.1-2 11.3-4.5 13.8-5.7 2.5-1.1 6.1-2.6 8-3.4 1.9-.7 6-2.2 9-3.3 7.2-2.8 9.5-2.7 11.7.5 1 1.4 2.6 3.4 3.5 4.5 1 1 2 3 2.4 4.4.3 1.4 1 2.8 1.5 3.1.5.3.9 1.6.9 3 0 1.3.5 2.4 1 2.4.6 0 1 1.1 1 2.5s.4 2.5.9 2.5c.6 0 1.8 1.4 2.8 3 1.3 2.3 2.3 3 3.8 2.6 1.4-.4 2.7.2 3.9 1.5 1 1.2 2.4 1.8 3.3 1.5 1.1-.4 1.4-.2.9.9-.3.9.4 2.4 1.9 3.7 1.4 1.2 2.5 2.7 2.5 3.4 0 .6.8 1.5 1.8 1.8 2.4.9 5.9 3 8 4.9 1 1 2.4 1.7 3.1 1.7.7 0 1 .4.7.8-.9 1.4 8 5.3 14.2 6.2 9.3 1.3 15.2 3.1 15.2 4.6 0 .8.7 1.4 1.5 1.4 1.4 0 2 1.2 1.6 3.4-.5 2.5 1.2 6.3 3.2 7.2 1.2.5 2.1 1.5 2 2.2-.4 1.5 1.3 1.6 2.2.2.4-.6 1.6-.8 2.7-.4 1.4.4 1.8.2 1.4-.5-.4-.6-1.4-1.1-2.2-1.1-.8 0-1.4-.7-1.4-1.5s.7-1.5 1.5-1.5c1.9 0 2-1.9.1-2.6-.8-.3-1.2-1.2-.9-2 .3-.8-.1-2.2-.9-3.2-.9-1.1-1.3-3.8-1.3-7.4.2-8.7 1.8-9 5.9-1 4.8 9.4 5.1 9.3 5-2-.1-6.9-.6-11.5-1.6-13.8-.9-1.9-1.5-5.3-1.4-7.5.1-2.2-.2-4.2-.5-4.5-.3-.3-1.6-7.4-2.8-15.9-2.2-15.1-2-19 .9-15.6.7.8 1.9 1.5 2.6 1.5.8 0 2.5 1.8 3.9 3.9 1.3 2.2 3.8 4.8 5.5 5.7 1.6 1 3 2.2 3 2.6 0 .8 4.6 5.4 11.9 12 2.2 2.1 4.1 4.5 4.1 5.3 0 .9 2 2.4 4.6 3.5 2.5 1.1 4.8 2.8 5.1 3.8.3 1.4 1.2 1.7 3.4 1.4 1.7-.3 2.9 0 2.9.7 0 .6 2 2 4.5 3.2 2.5 1.2 4.5 2.5 4.5 3s.8.9 1.7.9c.9 0 2.6.8 3.7 1.8 1.2 1.1 5.1 3.2 8.9 4.8 3.7 1.5 6.7 3.4 6.7 4.1 0 .8 1.1 1.9 2.5 2.5 1.4.6 2.5 1.6 2.5 2.3 0 .8 1.6.8 6.1.1 5.8-1 6.2-.9 7.8 1.3 1.6 2.1 2.2 2.3 6.4 1.3 3.1-.6 4.9-.6 5.6.1.7.7 1.4.7 2.3-.1.7-.6 3.3-1.7 5.8-2.6 3.7-1.3 4.8-1.3 6.5-.2 3.1 2 11 1.1 13.5-1.4 1.8-1.8 2.9-2.1 6.8-1.6 8.6 1.1 10.1.9 14-2.9 3.8-3.6 6.7-4.4 7.5-2.3.3.8.6.6.6-.5.1-.9.5-1.7 1-1.7.9 0 3.7-2.8 16.2-16.3 4-4.2 7.8-7.7 8.6-7.7.7 0 1.3-.6 1.3-1.4 0-1.7 3.2-7.9 4.2-8.4 1.1-.5 6.8-10.7 6.8-12.2 0-.7 2.3-3.7 5-6.7 2.8-3 5-6 5-6.6 0-.7.9-1.8 2-2.5s2-1.9 2-2.7c0-.8.5-1.5 1-1.5.6 0 1-.7 1-1.5 0-2.6 5.2-9.5 7.1-9.5 1.1 0 2-.3 2-.8.1-.4.3-1.8.5-3.2.5-4.6 3.3-14.3 4.2-14.9.5-.3 1.4-1.6 2.1-2.9 1.6-3 3.1-2.8 6.1 1 5.3 6.9 10.3 11.8 15.8 15.4 3.1 2.1 7.4 5.2 9.6 6.8 3.3 2.6 7.1 3.6 29.5 8.3 14.1 3 32.6 6.7 41.1 8.3 20.4 3.7 59.4 12.9 62.1 14.6.5.3 3.7 1.1 7.1 1.9 15.4 3.4 41 13.9 56.9 23.2 5.5 3.2 11.9 6.9 14.3 8.3 2.4 1.4 5.4 3.3 6.7 4.2 1.3 1 4.3 3.1 6.7 4.8 2.3 1.7 4.2 3.4 4.2 3.8 0 .5 2 1.9 4.4 3.2 11 5.6 17.3 17.7 27 51.7.8 2.9 2 9 2.7 13.5.6 4.6 1.9 9.4 2.8 10.8 1.7 2.5 3.2 6 7 16 1.1 3 2.5 9.5 3 14.5.5 4.9 1.4 10.8 2 13 .6 2.2 1.3 5.3 1.6 7 1.7 11.6 2.5 18.3 3 27 .4 5.5 1.4 12 2.2 14.5 2.4 7.2 5.6 22.4 7.4 35 .5 4.1 1.1 8.2 1.3 9.2.1.9.7 2.2 1.3 3 1.7 2.1 7.3 12.8 7.1 13.6-.1.4.9 2.9 2.1 5.7 4 8.6 4.7 11.7 6.9 27 .6 4.1 1.1 5 2.7 5 2.7 0 3.2 3.2.6 4-1.2.4-2.1 1.5-2.1 2.7 0 1.7.6 2 4.8 1.8 2.6-.2 5.8-.2 7.2-.1l2.5.1-2.9 1.5c-1.6.9-3.2 1.2-3.5.7-.8-1.2-8.2-.2-7.5.9.3.5 0 .9-.6.9-.7 0-1 1.5-.8 3.7.3 3.2.7 3.8 2.8 4.1 7.4.8 9.1 2.4 4.5 4.2-1.4.5-2.5 1.2-2.5 1.5 0 .7 1.6 3.4 5.8 9.9 1.7 2.8 3.2 5.4 3.2 5.8 0 .4 1.9 3.6 4.2 7 2.3 3.5 4.3 6.5 4.5 6.7.1.2 1.4-.4 2.7-1.3 1.4-.9 3.2-1.6 4.1-1.6 1.2 0 1.5-1.3 1.5-6.5V884l-4.5.7c-2.8.3-4.5.2-4.5-.5 0-1.3 2.4-2.2 6.1-2.2h2.9v-11.9c0-8.2-.4-12.1-1.2-12.3-1.8-.6-2-4.8-.3-5.4 1-.4 1.5-2.1 1.5-5.3 0-4.7 0-4.8-4.2-6.1-3.7-1.1-4-1.4-2.3-2.1 1.1-.4 3-.8 4.3-.8 2.2-.1 2.3-.1 2-13.8l-.3-13.8h-3.3c-4.1 0-3.6-1.8.9-2.7 2-.4 1-.5-2.3-.2-5 .5-5.8.3-5.8-1.2 0-1.4.8-1.6 5.5-1.1l5.5.6V591.2c0-136.9-.4-215.2-1-216.2-.5-.8-1-1.2-1-.8 0 .4-1.1.3-2.4-.2-1.8-.6-2.8-.5-3.6.6-.7.7-1.8 1.4-2.4 1.3-.7 0-.6-.2.2-.6 1.2-.5 1.7-3.3.5-3.3-.3 0-1.5.8-2.6 1.7-1.9 1.8-9.7 2.8-9.7 1.3 0-.4-.8-.7-1.7-.6-1 0-2.2-.9-2.8-2.2-1.2-2.6-2.5-2.9-2.6-.5 0 1.5-.2 1.5-.9-.2-.8-1.8-.9-1.9-.9-.1-.1 1.5-.8 1.7-4.1 1.4-3.6-.3-3.9-.2-3.4 1.7.6 1.8.4 1.7-1.5-.4-2.2-2.5-7.1-3.8-7.1-1.9 0 .6-.6.6-1.5-.2-1.6-1.3-3-.7-3 1.2 0 .6-.6 1.3-1.4 1.6-.9.3-1.1-.1-.6-1.7.5-1.7.2-2.1-1.4-2.1-1.2 0-2.1.5-2.1 1.1 0 .8-.5.7-1.6-.2-.9-.7-2.8-1.5-4.3-1.6-4.7-.6-5.3-1.1-4.1-3.3.6-1.1 1.5-1.8 1.9-1.5.5.3 1.2-.2 1.5-1.1.3-.9 1.3-1.4 2-1.1.8.3 1.6.1 1.8-.5.2-.6 1.1-.4 2.1.6 1.4 1.5 1.7 1.5 1.7.2 0-.8-.8-2-1.7-2.5-1.7-1-1.7-1 0-1.1.9 0 1.7.6 1.7 1.2 0 1 .2 1 .9 0 .7-1.1.9-1 1.4.3.4.9.3 1.3-.3 1-1.3-.8-1.3.5 0 2.5.8 1.3 1.5 1.2 4.7-.7 2.3-1.3 3.7-2.8 3.5-3.7-.2-1.2.6-1.6 3.8-1.6 2.2 0 4 .4 4 1 0 .5.8.7 1.8.4 1.6-.5 1.6-.5 0 .9-1.3 1-1.4 1.7-.6 2.5.8.8 1.8.6 3.6-.8 1.4-1.1 3.1-2 3.8-2 1.5 0 1.9-1.5.6-2.3-.4-.2-.1-.2.6-.1 1.7.5 1.5-.7-.5-2.2-1.7-1.3-1.7-1.3 0-1.4.9 0 1.7.5 1.7 1 0 1.1 5.1.2 6-1 .3-.4 1.9-.9 3.5-1.2 2.9-.4 3-.3 2.9 3.9-.1 3.4.2 4 1.2 3.2 1-.8 1.5-.3 2.3 2.3l1.1 3.3-.3-3.3c-.2-1.7 0-3.2.5-3.2.4 0 .8 1.2.9 2.7l.1 2.8.7-2.5c.7-2.5.7-2.5 1.3-.3.5 1.8 1.3 2.3 3.7 2.3h3.1v-15.1c0-9.8-.3-14.8-1-14.4-.6.3-1.9.3-3.1 0-1.6-.5-1.8-1-.8-2.1.9-1.1.8-1.4-.8-1.4-1.9 0-4.3-1.8-4.3-3.2 0-.4 2.3-.8 5-.8h5v-8c0-5-.4-8-1.1-8-.5 0-.8-.4-.5-.8.3-.5-.1-.9-.9-.9s-1.2.4-1 .7c.3.4-1.4.7-3.6.6-2.2 0-3.5-.2-2.9-.4.5-.2 1-.8 1-1.3 0-.4-.8-.6-1.7-.2-1.4.5-1.5.3-.7-.6.9-1 1.7-.9 3.7.4 2.4 1.5 2.6 1.5 3.2-.4.3-1.2 1.4-2.1 2.3-2.1 1.4 0 1.5-.2.2-1-.9-.6-1.7-.5-2.3.3-.6.8-.7.8-.4-.3.2-.8 1.2-1.5 2.3-1.5 1.9 0 1.9-1.7 2.2-64.3l.2-64.3-2.7.3c-2.8.3-2.8.4-3.1 8l-.3 7.7-7.7.3-7.7.3-.3 7.7-.3 7.8H917v-15.9l7.8-.3 7.7-.3v-15l-7.7-.3-7.7-.3-.3-7.7-.3-7.7-7.7-.3-7.8-.3v-15.8l7.8-.3 7.7-.3v-15l-7.7-.3-7.8-.3v-15.8l7.8-.3 7.7-.3v-15l-7.7-.3-7.7-.3-.3-7.7-.3-7.7-7.7-.3-7.7-.3-.3-7.7-.3-7.7h-15v31l7.8.3 7.7.3v47.8l-7.7.3-7.8.3v15l7.8.3 7.7.3v15.8l-7.7.3-7.8.3-.3 7.7-.3 7.8h-15.8l-.3-7.8-.3-7.7-7.7-.3-7.8-.3v-47.8l7.8-.3 7.7-.3v-31l-7.7-.3-7.7-.3-.3-7.7-.3-7.7h-15l-.3 7.7-.3 7.8h-15.8l-.3-7.8-.3-7.7h-31l-.3 7.7-.3 7.8h-15.8l-.3-15.8-.3-15.7-15.7-.3-15.7-.3-.3-15.7-.3-15.7h-31v31l7.8.3 7.7.3v15.8l-7.7.3-7.8.3-.3 7.7-.3 7.8H677l-.2-23.8-.3-23.7-7.7-.3-7.8-.3V32.1l7.8-.3 7.7-.3.3-15.8.3-15.7H661v16h-15.3c-8.7 0-15.7.4-16.3 1-.6.6-4-2.1-9.9-8l-9-9H500.4C439.9 0 390 .3 389.7.7c-.4.3-.2 1.2.4 1.9 2 2.5-.1 3.7-5.5 3.1-4.1-.5-5.5-.2-7.4 1.3-1.2 1-2 2.5-1.7 3.2 1 2.5-2.9 5.8-6.8 5.8-1.9 0-3.8-.6-4-1.3-.4-.8-.6-.7-.6.4-.1.8-1.7 2.3-3.6 3.2-2.9 1.4-3.9 1.5-5.5.5-1.1-.7-2-1.6-2-2 0-1.1-5.8-1-6.4 0-.8 1.4 3 4 6.8 4.8 2.1.3 3.6 1.2 3.6 2s-.3 1.4-.7 1.4c-1.3 0-4.7 6.3-4.4 8.1.3 2.2-1.9 2.9-6.4 1.9s-5.4-1.8-3.5-3.1c1-.6.5-.7-1.7-.3-2 .4-3.9.2-4.8-.6-.8-.7-1.5-1-1.5-.6 0 1.6-3.8-3.4-4.4-5.7-.5-2-.1-3.1 1.4-4.4 1.1-1 2-2.4 2-3.2 0-1.1.4-1 1.4.4 1.4 1.9 1.5 1.9 3.3.2 1.1-.9 3.5-1.7 5.3-1.7 1.8 0 3-.3 2.6-.8-.4-.4-4.3-.7-8.7-.7H329l-1 3.4c-.5 1.9-.6 3.9-.3 4.4.3.6.1.7-.5.3-.7-.4-1.2-.3-1.2.2s-.7.9-1.5.9-1.3-.2-1.1-.4c.2-.2-.7-1.6-2-3s-2.2-2.9-1.9-3.3c.6-1-2-1.3-10.6-1.1-7 .1-8 .4-10.8 3-1.7 1.6-3.1 3.2-3.1 3.6 0 1.8-3.5 3.8-6.7 3.7-2.7-.1-3.4.2-3.1 1.5.2.9 1.7 2 3.4 2.5 2.8.7 4.5 3.8 2.1 3.8-.5 0 .1 1.1 1.4 2.5 1.7 1.7 3.5 2.5 5.8 2.5 3.3 0 3.4.1 1.5 1.4-1 .8-2 1-2.2.5-.5-1.3-4-1.1-4.5.3-.4 1-.6 1-.6 0-.1-.6-1.4-1.2-3-1.2-2.3 0-3.1.5-3.4 2.2-.3 1.7-.5 1.4-.6-1 0-1.7-.4-3.1-.8-3-.5.2-2.1-1-3.6-2.6-2.3-2.3-2.6-3-1.4-3.9.8-.7 1.9-2.6 2.6-4.2.9-2.4 1.8-3.1 4.4-3.3 3.6-.3 8.7-4.6 8.7-7.4 0-1.2.4-1.6 1.2-1.2.7.5.8.3.3-.6-.5-.8.3-2.1 2.1-3.6 2.6-2.2 2.7-2.5 1.2-3.4-1.2-.7-1.8-2.3-1.8-4.5V0h-68.8l-1.1 6.1zM484 7.9c.5 1.1 1 3.3 1 5 0 2.3-.5 3.1-1.8 3.1-2.8 0-5.5-7.3-3.5-9.3 1.2-1.3 3.2-.7 4.3 1.2zm-19.6 7.7c2.3.9 2 5.1-.4 6.4-1.6.9-2.4.7-4.1-.9-2.3-2.1-1.7-4.6.8-3.7 1.1.4 1.3.2.9-.9-.6-1.6.3-1.9 2.8-.9zm4 9.9c1 .7 1.5 1.8 1.2 2.3-.9 1.5-5.1.2-6.4-1.9-1.1-1.7-.9-1.9 1-1.9 1.3 0 3.1.7 4.2 1.5zM505.3 44c-.4 1.6-.8 1.8-1.9.9-1.1-.9-1.1-1.5-.3-2.5 1.5-1.9 2.8-.9 2.2 1.6zm-227.9 5.5c-.4.8-1 1.5-1.5 1.5s-.9-.7-.9-1.5.7-1.5 1.5-1.5c.9 0 1.2.6.9 1.5zm82.4 1.4c.4 1.1-.5 1.2-4.4.7-7.1-1.1-8.2-2.8-1.5-2.4 3.5.2 5.6.8 5.9 1.7zm124 8.5c6.8 3.5 8.1 3.8 13.3 3.2 9.2-1.1 12.9-.9 15 1 1.1.9 1.7 2.5 1.4 3.3-.3 1.1.5 2.3 2.3 3.3 1.5 1 2.1 1.8 1.4 1.8-1 0-1 .5.2 2.2.9 1.2 1.6 3 1.6 3.9 0 .9.6 1.9 1.4 2.2.8.3 2.2 2.2 3.1 4.1 1.6 3.2 3.1 4.2 5.9 3.7 2.2-.4 9.6 4.6 10.7 7.1.6 1.6 1.5 2.8 1.9 2.8 1 0 7 5.9 7 6.9 0 .5.9 1.1 1.9 1.4 1.5.4 1.8 1 1.4 2.8-.6 2.1-.5 2.3 1 1 1.1-.9 1.7-1 1.8-.2.3 2.6.4 3 1.2 3.7.4.4.7 2.9.7 5.6 0 4.7 2.3 8.8 5 8.8.6 0 1 .8 1 1.7 0 1 2.1 3.8 4.6 6.4l4.6 4.7-2.1 2.1c-2.1 2.1-3 9.1-1.2 9.1 1 0 .3 3.9-1.1 5.6-.5.8-.1 1.3 1.3 1.7 1.3.4 1.8 1 1.4 1.7-.6.9-.9.9-1.5 0-.5-.8-1-.9-1.4-.2-.3.6-.1 1.2.6 1.4.7.3.9 1.1.3 2.4-.4 1-.7 2.3-.6 2.8.1.4-.5 1.9-1.4 3.2-1.3 2-1.4 3.3-.4 8.6.6 3.5 1.3 10.2 1.5 15 .4 9.6 2.7 16 8.8 24.7 4 5.6 5.3 9.1 7.2 19.6.8 4.4 1.9 10 2.4 12.5 1.6 7.5 4 22.1 5 29.7 1.2 9.8 2.1 14.6 3 15.8.7.9 2.2 12.9 2.2 16.8-.1 1 .4 1.5 1 1.1.8-.5.9.4.5 3-.3 2.2-.2 3.4.4 3.1.5-.4.9.1.9.9v2.1c0 .3-.3.4-.7.2-1.1-.3-2.2 8.2-1.6 11.5.3 1.6 1.1 2.8 1.8 2.8 1.7 0 2.5-5.2 1.9-12.5-.2-3.3-.4-6.5-.4-7 .1-1.2.7-16.8.9-24 .2-4.9 0-6.5-1.2-9.5-1.4-3.7-3.7-27.3-2.7-28.5.4-.6 1.1-2.6 1.5-4.5.4-1.9 1.5-4.2 2.5-5 1.9-1.7 3.3-8.7 1.9-9.5-.5-.4-.9 0-1 .7 0 1-.2 1-.6.1-.7-1.8 4.1-6.6 6.2-6.1 1.9.3 4 6.1 7.5 20.5 1.5 6 2.1 12.2 2.3 23 .2 13.1-.1 16-2.5 25.8-7.1 28.9-7 28.7-5.1 33.4 3.9 9.2-.3 23.7-8 27.6-3 1.5-4 5.1-2 7.1 1.5 1.5 1.5 1.7-.6 3.3-2 1.5-2.1 2-1 4.4.9 2.1 1 3.3.1 5.2-.7 1.4-1.2 3.9-1.2 5.6 0 1.8-.6 3.2-1.6 3.6-1.2.4-1.4 1.5-.9 4.7.4 2.7.3 3.6-.3 2.7-.6-.9-1.2-1-1.6-.3-.4.6.3 1.6 1.4 2.2 2.6 1.4 2.6 5 0 5.7-2.3.6-2.6 3.8-.9 7.6.9 2 .8 3-.5 5-2 3-3.8 12.7-2.3 12.7.5 0 .4.7-.3 1.5s-2.3 1.5-3.6 1.5c-2.5 0-3.2-1.4-1.4-2.5.6-.4.7-1.1.4-1.7-.4-.6-1-.5-1.5.3s-.6-.6-.3-3.6c.7-5.2 3.1-10.5 4.9-10.5 1.1 0-1.5-2-2.7-2-.5 0-.8.7-.8 1.6 0 1.3-.8 1.5-3.9 1-3.9-.5-4-.5-5.7 3.9-.9 2.5-2.1 4.5-2.5 4.5-.5 0-.9.8-.9 1.9 0 1-.6 2.3-1.3 2.9-2.2 1.9-7.9 14-7.6 16.4.1 1.3-.3 3.6-.9 5.1-.7 1.6-1.2 4.2-1.2 5.8 0 1.6-.6 3-1.2 3.1-.7 0-1.9.2-2.7.2-1.9.1-2.7 2.6-.9 2.7.7.1.2.4-1.2.8-1.5.4-3 .2-3.7-.5-1.5-1.5-1.7-3.8-.3-2.9.6.3 1-.3 1-1.4 0-1.2-.4-2.1-1-2.1-.5 0-1-.7-1-1.5s-.9-3.2-2-5.2c-2.4-4.5-2.4-5.5-.6-9.6 1.5-3.7 3.9-14.2 3.8-17.5 0-1.2.4-2.2.8-2.2 1 0 .5-16.2-.6-19.8-.3-1.2-1-2.2-1.4-2.2-.5 0-1-.6-1.2-1.4-.4-1.9-15.6-15.3-19-16.9-1.5-.6-2.8-1.8-2.8-2.4 0-.7-.4-1.3-1-1.3-.5 0-4.5-2.4-8.7-5.2-4.3-2.9-8.2-5.3-8.6-5.3-.4 0-1.2-.6-1.6-1.4-.6-.9-1-1-1.6-.2-.6 1.1.7 2.8 10.6 13.2 8.9 9.5 9.8 12.9 4.7 17.4-1.9 1.7-2.7 3-2 3.3.7.2 1 .8.6 1.3-.9 1.4-4.6 1-6.5-.7-2-1.8-4.9-1.3-4.9.8 0 1 .2 1 .9 0 .7-1.1.9-1.1 1.4.1.3.8-.4 2.5-1.6 3.8-1.2 1.3-2 3.3-1.9 4.6.4 3-1.6 3-2.8-.1-.5-1.3-1.8-2.7-3-3.1-1.4-.4-1.9-1.2-1.5-2.4.3-1.1-.5-2.9-2-4.7-2.5-2.9-2.5-2.9-3.1-.7-.4 1.3-1 2-1.5 1.7-.5-.3-1 0-1 .5-.5 3.8-1.9 6.9-3.6 7.5-2 .8-4.3-1.1-2.7-2.2 1.7-1.1 2.6-6 1.4-8.2-.7-1.4-.6-2.3.6-3.4 2.5-2.5.1-1.9-8.6 2.3-8.1 3.9-11.1 6-18 12-5.1 4.6-9.6 5.6-17.6 4.3-3.7-.6-7-1.6-7.4-2.2-1-1.6-6.1-4.1-7.1-3.4-.5.3-.7-.1-.4-.8.4-.9-2.8-2.1-11.4-4.2-13.4-3.2-15.8-4.8-18.4-12.5-1.7-5.2-1.9-4.8-4.2 8.3-1.8 10.3-1.9 13.6-.5 13.6 1.7 0 1.1 2.8-.7 3.9-1.4.7-2.3.5-4-1.1-2-1.9-2.3-1.9-2.9-.4-.4 1-1.3 1.4-2.3 1.2-1-.4-3.1 1-5.5 3.4-4.2 4.3-5.6 4.9-5.6 2.5 0-2.2-1.7-1.8-3.5.7-.8 1.3-1.9 2.1-2.3 1.9-.4-.2-1.6 1.3-2.7 3.4-1.1 2.1-2.7 4.1-3.5 4.3-.8.3-1.9 1.1-2.3 1.8-.4.8-1.4 1.4-2.1 1.4-2.9 0-4.5 3.4-4.2 8.7.4 6.1 1.1 7.4 3.2 6.6 1.3-.5 1.5-.1 1 1.3-.4 1.4.2 2.4 2.3 3.9 1.7 1 4.2 3.9 5.7 6.2 3.1 4.9 3.9 5.3 4.8 2 .4-1.8 1.8-2.8 5.3-3.9 3.1-1 4.8-2.1 4.8-3.1 0-2.3 2.6-4.6 3.2-3 .3.7 1.7 1.3 3.1 1.3 2.5 0 12.7 5.9 10.6 6.1-1.5.1 4.7 1.9 10.6 3 5.7 1.1 36 1.3 39.5.2l2-.6-2-.8c-1.9-.7-1.9-.8.3-.8 1.2-.1 2.2.3 2.2.9 0 .5.7 1 1.5 1s1.5-.5 1.5-1.1c0-.5.5-.7 1-.4.6.3 1.3-.1 1.6-.9.3-.9 1.2-1.6 2-1.6s1.1.6.7 1.7c-.6 1.5-.5 1.5 1.6.1 1.3-.9 2.9-1.4 3.6-1.2.7.3 1.6.1 1.9-.5 1.1-1.7-4.5-2.5-8.8-1.2-5.8 1.7-15.3 2.5-16 1.3-.3-.5-2.6-.7-5-.5-3.6.4-4.9.1-6.7-1.6-1.6-1.5-3.6-2.1-6.9-2.1-4.6 0-4.6 0-7.2-5.5-2.1-4.5-2.3-5.8-1.3-7.1 1.4-1.9 5.4-1.4 7.9 1.1 1.6 1.7 8.6 2.1 8.6.5 0-.6.9-.6 2.4.1 1.8.8 3 .7 5.4-.5 1.7-.9 4.7-1.6 6.7-1.6s3.4-.4 3-.9c-.3-.5-.1-1.2.5-1.6.6-.4.8-1.1.4-1.6-.3-.5 0-1.6.6-2.4.6-.8.9-2.2.6-3.3-.5-1.3.5-2.7 3.5-5.1 3.4-2.8 4.6-3.2 7.7-2.7 2 .3 4.5.6 5.5.7 1.5 0 1.7.6 1.2 3-.4 1.6-.3 2.9.2 2.9 2-.1 4.1-2.8 4.9-6.4.9-3.9 3.4-6.2 3.4-3.2 0 2.1.6 2 3.1-.3 2.2-2.1 7-3.4 8.1-2.2.4.4.3 2.1-.4 3.8-1.6 4.2.1 6.5 4.3 5.6 1.8-.3 2.9-.1 2.9.6 0 .6 2-.1 4.4-1.4 5-2.8 7.3-2.5 8.2 1.1 1.8 7.1-2.7 13.2-8.6 11.9-3-.7-3.1-.5-2.8 2.1.4 3.8 3.1 5.3 5.6 3.1 1-.9 2.8-1.7 3.9-1.7 1.2 0 4.5-2.5 7.9-6 6.1-6.3 14.5-10.6 18.1-9.3 1 .4 3.5 2.4 5.6 4.5 2.8 2.9 3.7 4.6 3.7 7.2 0 1.9.5 3.8 1 4.1.6.3 1 1.7 1 3.1 0 1.3.3 2.4.8 2.4.4 0 1.2 1.1 1.9 2.5.6 1.4.7 2.5.2 2.5-.5 0-.9-.5-.9-1 0-2.1-2-.9-2.6 1.6-.8 3 1.2 5.7 2.2 3 .3-.9 2.1-2.4 3.8-3.3 2.9-1.5 3-1.5 1.7 0-.9 1.2-1 2.1-.4 2.9 2.4 3.1 2.7 7.5 1.7 23.3-.1 2.7-.3 5.9-.4 6.9-.1 1.1-.6 2.8-1.2 3.9-.5 1.1-1.3 4-1.7 6.6-.5 4.1-.9 4.6-3.1 4.6-1.4 0-2.9.5-3.3 1.2-.6.9-1.3.7-2.8-.8-1.7-1.7-1.9-2.8-1.3-7.5.3-3 1.1-5.7 1.6-6 1.6-1 2 .3.8 2.5-.6 1.3-.7 2.1-.1 2.1.5 0 1.3-.9 1.6-2 .4-1.1 1.1-1.8 1.6-1.5.5.4.9-.5.9-1.9 0-1.3.5-2.6 1.2-2.8.8-.3.7-.6-.3-1-.7-.3-2.3-.2-3.4.3-1.8.7-1.8.8-.2.8 2.7.1 1 2.1-1.8 2.1-2.5 0-8.3 5.2-6.5 5.8.6.2.8 1.8.4 3.9-.4 2.4-.3 3.8.6 4.3.9.6.7 1.3-.9 2.9-2.4 2.4-2.6 3.7-.8 4.8.6.4 1.2 1.2 1.3 1.8 0 .5.4 2.3.8 3.8.6 1.9.4 3.7-.4 5.2-.7 1.3-1 3.3-.7 4.4.8 3.1-.6 3.3-2.7.5-3-3.8-4.6-3.1-4.6 2.1 0 3.3-.4 4.5-1.5 4.5-.8 0-1.5-.7-1.5-1.5 0-2-1.5-1.9-3.5.1-1.5 1.5-1.7 1.5-2.2-.5-1-3.8-3.8-2.1-4.1 2.4-.2 2.2-.8 4.4-1.3 5-.5.5-.9 1.9-.9 3.2 0 1.5-.4 2.1-1.4 1.7-1.7-.6-3.6 2.4-2.8 4.5.3 1-.2 1.3-2.2.9-1.8-.4-2.6-.1-2.6.8 0 .8-.2 1.4-.5 1.4-1.2 0-4.5-3.6-4.6-5 0-1.5-1.9 2.3-2.3 5-.2.8-2.3 2.5-4.7 3.8-4.4 2.3-4.4 2.3-6 .3-1.6-2-1.7-2-3.4-.1-2.1 2.4-5.5 2.6-5.5.5 0-.8-.5-1.5-1.1-1.5-.6 0-.3-.7.6-1.6 1.7-1.7 1.6-3.5-.1-4.1-1.3-.4-3.4 4-3.4 6.9 0 1.2-.3 1.8-.7 1.5-.3-.4-1.1.3-1.7 1.5-1.3 2.6-4.2 4.5-5.2 3.5-.5-.4-.8-2.3-.7-4.2.1-4.8-1.2-5.2-5.3-1.6-1.9 1.7-4.1 3.1-4.9 3.1-.7 0-1.5.6-1.8 1.2-.2.7-.8 0-1.2-1.7-1-3.7-5.7-8.6-8.2-8.3-4.2.3-6.7-.2-5.7-1.2 1.8-1.8-.5-10-2.7-10-1 0-2.1-.5-2.4-1-1-1.7-2.5-1.1-2.5.9 0 1.1-.9 2.3-2 2.6-1.1.4-1.8 1-1.5 1.5.3.5.1 1.1-.5 1.5-.5.3-1-.1-1-.9 0-.9-.4-1.6-1-1.6-.5 0-1 .6-1 1.2 0 .7-1.2 1.9-2.7 2.5-2.2 1.1-2.8 1-3.9-.5-.7-.9-1.4-2.6-1.4-3.7-.1-3.9-1.2-6.6-2.6-6.1-.7.3-1.8-.3-2.3-1.2-.9-1.5-1-1.5-1.1.3-.1 1.1-.4 1.4-.7.7-.2-.6-1.3-1.2-2.4-1.2-1.3 0-1.9-.6-1.7-1.8.3-1.8-1.2-2-4.4-.7-2.5 1-2.3-1.4.3-6.4 2.5-4.9 2.2-7.5-1.1-7.9-1.4-.2-4.4-1.2-6.7-2.3-2.4-1-5-1.9-5.9-1.9-.9 0-1.8-.9-2.1-2-.5-1.9-1.9-2-7.1-.4-.8.2-1-.4-.6-2.1.5-2 .3-2.3-1.5-1.8-1.7.4-2.1.1-2.1-2 0-1.6-.8-3.1-2.1-3.8-1.5-.8-2-1.8-1.6-3.5.2-1.3.1-2.4-.4-2.4-.4 0-1-1.3-1.4-3-.4-1.6-1.3-3-2.1-3s-1.4-.7-1.4-1.5-.7-1.5-1.5-1.5-1.5-.9-1.5-2.1c0-1.1-.5-1.7-1-1.4-.6.3-1.3-.2-1.6-1.2-1.5-4.5-4-8.3-5.6-8.3-.9 0-2-.9-2.3-2-.3-1.1-1.2-2-2-2s-1.7-.9-2-2.1c-.4-1.1-.9-1.8-1.2-1.5-.4.3-1.2.1-1.9-.4-.6-.6-1.8-.9-2.5-.8-.9.2-1.3-.5-1.1-2.1.1-1.7-.2-2.2-1.3-1.7-.8.3-2.1.9-2.9 1.2-1 .4-2-.5-3.1-2.5-.8-1.7-2-3.1-2.5-3.1-.6 0-1-.8-1-1.8s-1.4-2.6-3.1-3.6c-2-1.2-2.8-2.3-2.5-3.3.5-1.1.1-1.4-1.3-1-3.5.9-12-10.2-12.1-15.6 0-1.8-1.3-4.4-3.5-7-1.9-2.2-3.5-5.1-3.5-6.3 0-1.3-.5-2.6-1.1-3-.7-.4-.9-2.2-.6-4.5.3-2.5.1-3.8-.6-3.6-.6.1-1.2-.7-1.4-1.8-.3-1.1-.7-2.7-1-3.5-.3-.8-.7-2.7-.9-4.1-.2-1.4-1.7-9.2-3.4-17.3-3.3-15.7-7.4-47.5-6.4-50 .3-.8.1-2.3-.5-3.4-.5-1-1.3-7.5-1.6-14.3-.4-6.8-1-17.6-1.5-23.9-.4-6.3-.5-11.9-.3-12.3.3-.4.5-2.9.5-5.5 0-2.5.2-5 .5-5.5.2-.4.6-4.9.8-10 .1-5.6.9-10.7 1.9-13.1 1.9-4.5 2-7.8.5-9.3-.8-.8-.9-2-.1-4.2.8-2.4.8-3.4-.2-4.4-.8-.8-1.2-3-1-5.5.1-2.3-.2-5.7-.8-7.5-.5-1.7-1.1-5.2-1.3-7.7-.2-2.5-.9-6.8-1.6-9.5-.6-2.8-1.3-6.4-1.5-8-.1-1.7-.3-3.4-.3-3.8-.1-.5-.5-.6-1-.2-1.6.9-2.3-1.3-1.1-3.5.7-1.3.8-2.6.1-3.7-.6-1.1-.6-2.4.1-3.7.6-1.1 1.2-3.6 1.4-5.5.5-5 .9-6.9 1.7-7.7.4-.4.2-1.3-.3-1.9-2.1-2.5 3.1-18.5 6.7-20.8.6-.4 1.4-2.1 1.8-3.7.5-2.2 1.2-3 2.8-3 1.8 0 1.9-.2.7-1-.8-.5-1.1-1.2-.8-1.5.4-.4 1.2-.3 1.9.1s2.5.9 4 1.1c1.5.1 4.3 1.3 6.2 2.6 1.9 1.3 6 3.2 9.1 4.1l5.7 1.8 4.8-3.3c2.7-1.9 4.7-3.7 4.4-4.2-.2-.4.2-.7 1-.7 2.1 0 4.5-3.1 5-6.5.7-4.5 6.9-17.5 8.4-17.5.7 0 1.3.3 1.3.7 0 1.1 5 3.3 7.2 3.3.9 0 2.2-.9 2.8-2 1-1.8.8-2-3-2-4.1 0-4.4-.2-3.1-3.3.6-1.7.8-1.7 3 .2 2.6 2.3 5.6 2.7 6.6 1.1.4-.6 1.6-.8 2.8-.5 1.7.5 1.8.4.8-.4-1.7-1.1-.2-1.6 8.4-2.5 2.7-.4 6.3-1.1 8.1-1.8 2.8-1 3.4-.8 5.4 1 1.8 1.7 2.7 1.9 4.2 1.1 1.6-.9 2.4-.6 3.9 1 1 1.1 1.9 2.7 1.9 3.6 0 3.1 2.5.9 5.2-4.5 1.5-3 3.2-5.4 3.9-5.2.6.1 1.7-.2 2.4-.8.9-.7 3.1-.8 7-.2 6 1 11.9-.3 13.5-2.8.7-1.1 1.2-1.1 2.3-.1 1.2.9 1.6.9 1.9-.1.3-.9 2.5-1.2 7.7-1 5.6.3 7.1.1 6.9-1-.4-1.7 5.8-2.4 7.7-.8 2 1.7 3.4.4 3.1-2.7-.2-1.7-1.1-3-2.5-3.5-2.6-.9-2.6-5.2-.1-5.4 4.8-.3 5.2-.5 4.6-1.9-.3-.9 0-1.5.9-1.5 1.9 0 2.7-3.2 1.6-6.3-.9-2.3-.6-2.8 2.2-4.6 1.9-1.2 3.7-1.7 4.7-1.2.8.5 4.8 1.1 8.8 1.4 6 .5 7.3.3 6.9-.8-1.1-2.7 1.1-3.2 5.1-1.1zm-122.2 4.2c-.8 2.9 2.2 7.4 3.4 5.4.5-.7 1.1-.6 1.9.4 1 1.2.5 1.9-3.4 4.1-4.3 2.6-4.7 2.6-7 1.1-3.5-2.3-3.2-5.6 1.2-9.9 2-2.1 3.8-3.7 4.1-3.7.2 0 .1 1.2-.2 2.6zm30.8 14.6c-1.6 2.9-3.8 4.8-5.6 4.8-2.6 0-2.2-1.2 1.5-3.8 3.5-2.5 5.2-2.8 4.1-1zm7.6 9.4c0 .2-.9.4-2 .4s-2-.4-2-.9.9-.7 2-.4c1.1.3 2 .7 2 .9zm-107.3 2.1c-.3.3-1.1.2-1.7-.2-.9-.6-.9-1 .1-1.6 1.4-.8 2.7.7 1.6 1.8zM280.5 95c2.3.9 2.6 1.5 2.3 4.7-.2 3 .1 4 1.7 4.8 1.2.6 2 2.1 2 3.5 0 2.1-.4 2.5-2.4 2.2-3.1-.3-5.3-2.2-4.7-3.9.3-.7-.4-3.2-1.6-5.5-1.6-2.9-1.8-4.3-1-4.6.7-.2 1-.8.6-1.3-.7-1.1-.1-1.1 3.1.1zM389 96c0 .5-.2 1-.4 1-.3 0-.8-.5-1.1-1-.3-.6-.1-1 .4-1 .6 0 1.1.4 1.1 1zm336 24v8h-48v-16h48v8zm64 0v8h-32v-16h32v8zm-687 11.7c0 1.4-.1 2.4-.3 2.2-.1-.2-1.1-1.4-2.1-2.7-1.9-2.2-1.9-2.2.2-2.2 1.7 0 2.2.6 2.2 2.7zM789 168v8h-16v-16h16v8zm-567.6 11.3c-.7 4.7-.7 4.7-4.5 4.7s-3.9-.1-3.9-3.8c0-3.7.2-3.9 4.3-4.8 2.3-.5 4.3-.9 4.5-.8.1 0-.1 2.2-.4 4.7zm4.1-4.3c.3.5-.1 1-.9 1-.9 0-1.6-.5-1.6-1 0-.6.4-1 .9-1 .6 0 1.3.4 1.6 1zm53.8 26.5c-.3.9-.8 1.4-1 1.1-.3-.3-.2-.9.2-1.5.9-1.6 1.5-1.3.8.4zm589.9 14.2l.3 7.8 7.8.3 7.7.3v14.5l-17.2.3c-9.5.2-20.3.4-24 .6l-6.7.2-.3-7.6-.3-7.6-7.7-.3-7.8-.3V208h47.9l.3 7.7zM120 227.5c0 1.9.8 4.4 1.7 5.5 2.1 2.4 3.3 2.6 3.3.5 0-1.1 1.1-1.5 4-1.5h4v4c0 2.9.4 4 1.5 4s1.5 1.1 1.5 4-.4 4-1.5 4c-.9 0-1.5-.9-1.5-2.5 0-2.3-.4-2.5-4-2.5-2.9 0-4-.4-4-1.5 0-.8-.9-1.5-2-1.5-3.9 0-6-3.5-6-10 0-4.7.3-6 1.5-6 1 0 1.5 1.1 1.5 3.5zm829 3.3c0 8 1.8 7.2-18.2 7.5l-13.8.2V224h32v6.8zm-797 10.3c0 .5.5.7 1 .4.6-.4 1 2.2 1 6.9 0 7.4-.1 7.6-2.5 7.6-2.2 0-2.5-.4-2.5-4 0-2.2-.3-4-.8-4-.4 0-.6-1.8-.4-4 .3-3.1.8-4 2.3-4 1 0 1.9.5 1.9 1.1zm621 6.3v7.3l-3.1.7c-1.7.3-4 .1-5.1-.5-1.1-.6-3.3-.9-4.9-.7l-2.9.5V240h16v7.4zM130 252c0 2.9.4 4 1.5 4 .8 0 1.5-.6 1.5-1.4 0-.9 1.4-1.5 4-1.8 3.9-.3 4-.3 4 2.8 0 3.1-.2 3.2-4.7 3.7-2.7.3-6.3.9-8 1.2-3.1.7-3.3.5-3.3-1.9 0-1.6.5-2.6 1.5-2.6 1.1 0 1.5-1.1 1.5-4 0-2.2.5-4 1-4 .6 0 1 1.8 1 4zm-37 2.5c0 .8-.7 1.5-1.5 1.5-1.6 0-2-1.2-.8-2.3 1.1-1.2 2.3-.8 2.3.8zm80 9.5v8h-8v-4c0-3.6.3-4 2.5-4 2.3 0 2.5-.4 2.5-4 0-2.9.4-4 1.5-4 1.2 0 1.5 1.6 1.5 8zm708.3 20.4c-.4 4.6-1.3 6.2-1.3 2.2 0-1.5-.4-3.5-.9-4.5-.7-1.3-.5-1.7.8-1.7 1.4 0 1.6.8 1.4 4zm6-3.7c-.7.2-1.9.2-2.5 0-.7-.3-.2-.5 1.2-.5s1.9.2 1.3.5zm11.5-.1c1.2.4 2.2 1 2.2 1.5s-.7.5-1.7.2c-1.2-.5-1.4-.3-.9.8.4.8.1.6-.7-.4-.8-.9-2-1.7-2.8-1.7-1.2 0-1.2.2 0 .9.8.5.9 1.1.3 1.5-1.1.7-2.4-1.8-1.5-2.8.8-.8 2.2-.7 5.1 0zm-12.9 2.5c-1.8 1.1-3.9 1.1-3.9 0 0-.5 1.2-.9 2.6-.9 1.8 0 2.2.3 1.3.9zm4.1 1.4c0 1.2.5 1.3 1.8.7 1.9-.9 5.4-.8 7.1.2.6.4 1.1.2 1.1-.3 0-1.7 2.7-1.3 3.4.5.4.9.5 1.8.4 1.9-2.7 2.2-6.3 2.9-13.3 2.7-4.4-.2-7.5.1-7 .5 1.3 1 1.3 4.3 0 4.4-.5 0-1.3-.8-1.7-1.8-.7-1.4-.7-1.3-.4.5.3 1.7.1 2.2-1 1.8-2.4-.9-6.2 1.1-6.6 3.5-.2 1.2-1 2.4-1.8 2.7-1.2.4-1.3.2-.2-.9.6-.7 1.2-2 1.2-2.8 0-1.1-.4-1-1.4.5-1.3 1.7-1.5 1.8-2.1.2-.4-.9-.3-2.2.1-2.9.4-.8.3-.9-.4-.5s-1.3.2-1.3-.3c-.1-.6-.2-1.7-.3-2.4-.1-.7-1.4-1.1-3.4-1.1-2 .1-3.2-.3-3.2-1.1s.8-1.1 2.3-.8c1.8.4 1.9.3.7-.6-1.3-.9-1.3-1.1.2-1.1.9 0 1.9.6 2.1 1.2.4.9.8 1 1.4.2 1.1-1.5 4.2-1.4 3.6.2-.2.6 0 1.5.6 1.9.7.3 1.1-.3 1.1-1.6 0-1.6.5-2 2-1.6 1.4.4 2.1-.2 2.8-2.2.9-2.4.9-2.4.9 1.1-.1 2.3-.4 3.3-.9 2.5-.9-1.4-1-.5-.2 1.7.5 1.3.8 1.3 2 .1.8-.7 1.8-2.5 2.4-4 .5-1.4 1.4-2.4 1.9-2 .5.3 1.2.1 1.6-.5.4-.6 1.1-.8 1.6-.5.5.4.9.1.9-.4 0-.6.5-1.1 1-1.1.6 0 1 .7 1 1.5zm-626.2 4.1c.5 9.2 1.5 15.4 2.3 15.4.5 0 .9 1.1.9 2.5 0 1.3 1.2 5 2.6 8.2 2.5 5.5 2.8 10.2 1.3 20.1-.5 3.1.3 11.2 1 10.7 1-.5 2.4 3.2 3.7 9.5.3 1.9 1.7 4.9 3.1 6.6 1.7 2.4 2.2 3.9 1.7 5.8-.4 1.7 0 3.5 1 5.1.9 1.3 1.6 3.5 1.6 4.9 0 1.4.4 2.7.8 3 .5.3.9 2.1 1 4.1.1 1.9.6 4.4 1.2 5.5.8 1.5.8 2-.3 2-2.3 0-6.6-5.6-7.2-9.5 0-.6-.4-1.7-.7-2.5-.4-.8-.8-4-1.1-7-.2-3-1.1-7.1-1.9-9-.9-1.9-2.4-6.2-3.4-9.5-.9-3.3-2.1-6.5-2.5-7-.8-1.1-2.5-11.4-2.1-12.8.2-.5-.3-.7-1-.4-.7.2-2.5-.4-4-1.5-1.6-1.1-3.3-1.6-3.8-1.3-.6.4-1.8.1-2.7-.7-.9-.7-1.8-1.2-2-1.1-1.1.9-4.3.1-4.3-1 0-.8-1.2-1.3-2.9-1.2-1.6 0-2.7.3-2.5.6.7 1.3-2.1 1.6-5.6.6l-3.5-.9 2.4-1.9c1.9-1.6 2.6-1.7 3.3-.7.4.8.5-.1.2-2-.4-1.7-.2-3.2.3-3.2s1.9-.9 3.1-2c2.1-2 2.2-2 2.2-.2 0 1.1-.9 2.2-2 2.5-2.4.6-2.6 2.3-.4 3.1 1.2.5 1.5.2 1-1.1-.5-1.5-.3-1.5 1 .2 1.4 1.7 1.6 1.7 1 .2-.3-1.1.2-2.7 1.7-4.2l2.2-2.4 3.3 2c1.7 1.2 3.2 2.7 3.2 3.5 0 .8.6 1.4 1.4 1.4.8 0 2.2.3 3.2.7 1.3.5 1.6.3 1.1-1-.4-1-.1-1.7.6-1.7.7-.1.2-.9-.9-1.8-1.9-1.6-2-2.1-.8-3.7.7-1 1-2.3.7-2.9-.4-.6-.8-4-1-7.6-.1-3.6-.4-9.7-.7-13.7-.5-6.3-.4-7.1 1.2-6.9 1.2.2 1.8 1.4 2 4.2zm-82.8 1.9c0 5.4 0 5.5-3 5.5-2.8 0-3-.2-3-4 0-2.2-.4-4-1-4-.5 0-1-.7-1-1.5 0-1.1 1.1-1.5 4-1.5h4v5.5zm735.9-.9c.3.3-1.2.5-3.5.3-3.5-.4-4-.2-3.6 1.3.5 1.9 2.2 2.5 2.2.8 0-.6 1.2-1 2.8-1l2.7.1-2.5 1.4c-1.4.8-2 1.4-1.5 1.4.6.1 1.7-.3 2.5-.9.9-.6 1.7-.5 2.2.3 1.4 2.1.9 3.7-1.4 4.7l-2.3.9h2.2c1.6.1 2.1.5 1.6 1.7-.3.9 0 2 .8 2.5.9.5.5.7-1.4.5-3.2-.3-4.9-1.6-2.1-1.6 1.6 0 1.4-.4-.8-1.8-1.6-.9-2.8-2.3-2.8-3 0-.7.5-1 1-.7.6.3 1 .1 1-.4 0-1.4-.6-1.4-3-.1-1.6.8-1.8.7-1.4-.4.3-.8 0-1.7-.6-2.1-.6-.3-.9-.1-.8.6.2.6-.3 1.4-1.1 1.7-1 .3-1.1 0-.5-.9.6-1.1.5-1.2-.7-.2-2.9 2.3-8.2-.8-6.4-3.7.7-1.2 2.5-.4 2.5 1.1 0 .6-.4.7-1 .4-.6-.3-.7.1-.3 1 .8 2.4 2.5-.4 1.7-2.9-.4-1.3-.2-1.6.6-1.1.6.4 1 1.8.7 3.1-.2 1.3 0 2.1.5 1.7.6-.3.8-1.8.4-3.3l-.5-2.8 6.1.3c3.3.2 6.3.7 6.7 1.1zm6.9-.6c1.4 0 1.4.2.3.9-.9.6-1.2 1.9-.8 4 .4 1.7.3 3.1-.2 3.1s-1.2-1.7-1.6-3.7c-.4-2.1-1.2-4.2-1.8-4.6-.8-.6-.5-.7.6-.3 1 .3 2.6.6 3.5.6zm-3.8 2c0 .5-.4 1-1 1-.5 0-1-.5-1-1 0-.6.5-1 1-1 .6 0 1 .4 1 1zm-763 1.1c0 .8 1.7 1 5.4.6 4.8-.5 5.5-.3 5.9 1.4.4 1.6 0 1.9-2.9 1.9-3.3 0-3.4.1-3.4 3.8 0 3.7-1.2 5.6-4.9 7.7-1 .6-1.2.2-.7-1.6.3-1.3.3-1.8 0-1.2-.7 1.6-3.6 1.7-5.2.1-.7-.7-1.2-.8-1.2-.3 0 .6 1.6 2.1 3.6 3.5 2 1.3 3.1 2.6 2.4 2.8-.7.3-1.5 0-1.9-.5-.3-.5-1.4-1.3-2.4-1.6-1.1-.4-2.1-1.6-2.4-2.7-.3-1.1-.9-2-1.4-2-.5 0-.9-1.8-.9-4 0-3.4.3-4 2.1-4 1.2 0 3-1.1 4.1-2.5 2.1-2.6 3.8-3.3 3.8-1.4zm737.6 1.6c-1 1-1.9-.5-1-1.8.6-1.1.8-1.1 1.2 0 .2.7.1 1.5-.2 1.8zm3.9 2.1c-.3.3-.5 0-.5-.8 0-1-.3-1-1.6 0-1.3 1.2-1.4 1-.3-1.4 1.3-2.7 1.3-2.7 2.1-.5.5 1.2.6 2.4.3 2.7zm-34-2.6c-1.1.6-2.3 1.6-2.7 2.2-.5.7-.8.8-.8 0 0-1.5 2.2-3.4 4-3.4 1.1.1 1 .4-.5 1.2zm56.2 2c-.3.8-.6.5-.6-.6-.1-1.1.2-1.7.5-1.3.3.3.4 1.2.1 1.9zm-52.6 2.5c.7 2.1 1.1 4 1 4.2-.2.2.3.7 1.1 1.2.9.6.7.8-.8.7-1.5-.2-1.9-.7-1.6-2.4.6-3.5-1.5-3.7-3.8-.4-1.2 1.6-1.7 3-1.2 3s1.7-1 2.6-2.3l1.7-2.2-.7 2.5c-.8 3.2-2 4.7-4.4 5.3-1.6.4-1.8 0-1.5-2.4.2-1.6-.1-3.2-.7-3.5-.7-.5-.9.2-.4 2 .4 1.5.2 2.6-.4 2.6-1 0-1.4-1.3-1.1-4 .2-1.2 0-1.3-.7-.1-1.1 1.6-3.2.6-3.2-1.5s2.7-2.9 4.7-1.3c1.4 1.2 1.6 1.2 1.1-.1-.7-2.1-4.9-1.9-6.2.3-.9 1.5-.7 2.2 1.2 3.7 2.3 1.9 2.9 4.5 1.2 5.5s-1.1 2.5 1 2.5c1.1 0 2-.5 2-1.1 0-.5.5-.7 1-.4 2.1 1.3.9 2.5-2.5 2.5-2.7 0-3.5-.4-3.5-1.8 0-1 .5-2.3 1.2-3 .6-.6.9-1.5.5-1.9-.4-.3-1.4.2-2.2 1.3-.8 1-1.5 1.4-1.5.7s-.6-1-1.4-.7c-.8.3-1.6-.2-1.9-1.3-.4-1.7-.5-1.7-.6 0-.1 1.1.7 2.1 1.9 2.4 2.1.6 2.8 2.3.9 2.3-.5 0-.7.4-.4 1 .3.5.1 1-.4 1-.6 0-1.1-.6-1.1-1.4 0-2.3-2.9-2.7-4-.5-.8 1.3-1.7 1.8-2.9 1.4-1.2-.3-2.1 0-2.5 1.1-.3.9-1.3 1.4-2.1 1.1-1.1-.5-1.3.1-1 2.6.4 2.9.1 3.3-2 3.5-2.2.2-2.5-.3-2.6-3.1-.1-1.7-.3-2.5-.6-1.6-.3 1.1-1.2 1.5-2.6 1.3-1.2-.2-1.6-.2-.9.2.6.3 1 1 .7 1.5-.4.5.1.6.9.3.9-.3 1.6-.1 1.6.5 0 .7-2 .9-6 .7-4.8-.4-6-.2-6 1 0 1.9-3.6 1.8-4.4-.1-.4-1.1 0-1.5 1.1-1.3.9.2 1.8-.4 2-1.2.4-1.2.3-1.2-.5-.1-.7.9-1.1 1-1.7.2-.7-1.3-4.1 1.8-7.2 6.5-.9 1.4-2.1 2.3-2.7 2.1-.7-.3-1.3.6-1.4 1.9-.1 1.4.5 2.7 1.3 3 .8.4 1.5 1.2 1.5 1.9 0 .8.5 1.7 1.2 2.1.7.5.8.3.3-.6-.5-.8-.1-1.8 1.1-2.7 1.9-1.4 1.9-1.5-.1-1.3-3.6.4-4.5 0-4.5-1.8 0-1.4.2-1.5 1-.2.8 1.2 1.3 1.3 3 .2 2.4-1.4 5-1.6 5-.2 0 .5-.7.7-1.5.4-1.1-.5-1.3-.2-.9 1 .8 2 2.7 1.6 3.6-.7.4-.9 1.2-1.7 1.7-1.7.6 0 .8.8.4 1.7-.5 1.5-.3 1.4 1-.2.9-1.1 1.7-1.8 1.8-1.5.6 2.8.5 5.8-.3 7-.7 1.1-.8.8-.4-1 .5-2.4.4-2.4-.9-.5-3.1 4.5-4.3 5-9 4.7-4-.4-4.6-.7-4.2-2.3.3-1.2.1-1.7-.6-1.2-1.4.9-9.3 1.2-10.4.4-1.9-1.3-2.2-4.1-.5-5.3.9-.7 1.8-2.2 2-3.3.3-1.9.3-1.9-1.1-.1-1 1.4-2.2 1.7-4.5 1.4-1.8-.2-3.2-.1-3.2.4 0 .4 1.2.9 2.8.9 2.3.2 2.4.2.5.6-1.3.2-2.3.8-2.3 1.3s.7.7 1.5.4c1-.4 1.8.2 2.4 1.7 1 2.8.4 4.9-1.4 4.9-.7 0-1.5.6-1.8 1.2-.8 2.3-2.1-.2-2-3.7.1-1.9-.3-3.3-.8-3-.5.3-1.8.1-2.9-.5-1.6-.9-1.8-.8-1.4.5.4.8.1 1.5-.5 1.5s-1.1-.6-1.1-1.3c-.1-.6-.7-.1-1.5 1.3-1.7 2.9-1.9 2.2-.5-1.5.7-1.9.7-2.4-.1-1.9-.6.3-1.5 0-2-.7-.7-1.2-.9-1.1-1 .1 0 .8-.5.4-.9-1-.8-2.5-.8-2.5-.9-.2-.1 1.3-.5 2-1.1 1.7-.5-.3-1-.1-1 .4 0 .6.6 1.1 1.3 1.1.7 0 1.8.9 2.5 2 1.4 2.3 0 2.7-2.1.5-1.3-1.3-1.6-1.3-2.1 0-.3.8 0 1.4.6 1.2.6-.1 1.3.4 1.5 1 .3.9-.8 1.3-3.6 1.3-2.5 0-4.1-.5-4.1-1.2 0-.6-.6-.4-1.3.6-1.7 2.3-5.2 1.7-5.2-.8 0-2.4-1.8-3.1-4.2-1.7-1.5.9-1.3 1 1 .5 3.3-.8 3.5 0 .3 2.1-1.9 1.3-2.9 1.4-4.5.5-1.4-.7-2.1-.7-2.1 0 0 1.5-7.7 1.3-8.3-.3-.3-.6-.4.4-.3 2.4l.2 3.7-7.7-.2c-4.2 0-7.5-.4-7.2-.9.2-.4.1-.7-.4-.8-.4 0-1.8-.2-3-.3-2.4-.3-3.2.9-1 1.7.6.2-1.8.4-5.4.3-4.5-.1-6.5-.5-6.2-1.2.4-1.2 5.1-1.3 6.8-.2.6.3 2-1.1 3.3-3.2 1.3-2.4 1.8-4.1 1.2-4.5-.6-.3-1 .2-1 1.2-.1 2.8-2.2 4.8-5.2 4.9-1.9.1-2.8-.3-2.8-1.3 0-.9.6-1.3 1.4-1 1.1.4 1.1.1.2-1.9-.9-1.9-1.2-2.1-1.4-.6-.2.9-1.1 2.8-2.1 4.1l-1.9 2.4-1.7-3.3-1.7-3.3 2.5.5c1.9.4 2.8-.1 3.6-1.9.6-1.2.6-2.3.2-2.3-.5 0-1.1.8-1.4 1.7-.2 1-.4.1-.3-1.9 0-2.3.3-3.3.8-2.5.6.9.8.9.8-.1 0-.6.5-1.2 1.1-1.2.6 0 .9.7.6 1.4-.4 1-.1 1.3.9.9.7-.3 1.4-.9 1.4-1.3s2.4-.7 5.4-.6c3 0 5.2.3 5 .5-.2.2.5 1 1.6 1.8 2.1 1.5 4 1 4-.9 0-.7-.4-.7-1.3.1-1.3 1-2.7.6-2.7-.8 0-.4 4.7-.7 10.4-.7 8.5-.1 10.3.2 9.9 1.3-.3.8-1.2 1.2-2 .9-.8-.4-1.1-.1-.8.5.4.6 0 1.8-.9 2.8-1.4 1.5-1.4 1.8-.1 1.8.8 0 1.5-.6 1.5-1.2 0-2.1 3.5-4.6 4.8-3.5.9.7.9.7.2-.2-.5-.7-1-1.6-1-2 0-1.2 6.3-.6 7.2.6.4.6 1.3.5 2.3-.4 1.4-1.2 1.8-1.2 2.6.1.6 1 .9 1 .9.1 0-.6.6-1.2 1.3-1.2 1.9 0 4-3.7 2.4-4.3-.7-.3-.7-.6-.2-.6.6 0 1.7.3 2.5.9 1.2.7 1.2 1.2-.4 2.8-1.3 1.5-1.4 2.2-.5 2.8.8.5 1 .3.4-.6-.6-1-.4-1.2.9-.7 1 .4 1.5.3 1.1-.3-.4-.6.4-1.4 1.7-1.9 2.1-.9 2.1-1 .3-1.1-1.1-.1-1.4-.4-.7-.7 2-.8 1.4-2.6-.8-2-1.2.3-2 0-2-.7 0-.8 1.3-1.2 3.3-1.2 2.9.1 3.2.4 3.2 3 0 1.6.6 3.1 1.3 3.3.6.3 1.2 0 1.2-.7 0-.6-.4-.8-1-.5-1.3.8-1.3-2.6.1-4.5.8-1.1.9-.9.3 1l-.7 2.5 2.1-2.5c1.2-1.4 2.1-1.9 2.2-1.3 0 .9.7 1 2.6.3 3.2-1.3 4.4-1.3 4.4 0 0 .5-.8.7-1.7.4-1.5-.5-1.5-.4-.4.4s2.3.4 4.7-1.5c1.8-1.3 3.8-2.2 4.4-1.8 1.5.9.1 2.8-1.6 2.1-.9-.4-1.4.2-1.4 1.5 0 2 0 2 2.2-.1 2.8-2.6 3-2.6 5 1 .9 1.7 2.2 3 2.9 3 .8 0 .7-.6-.4-1.8-1.4-1.5-1.4-1.9.3-4 1-1.2 2.4-2.2 3.2-2.3.7 0 .4-.4-.7-.9-1.7-.7-1.7-.9-.2-.9 1.8-.1 2.5-2.1.7-2.1-.5 0-1-.3-1-.8 0-.4 2.3-.7 5-.7 5.5-.1 6 .4 3 2.3-1.1.7-2 1.7-2 2.4s.6.3 1.4-.7c.8-1.1 1.9-1.6 3-1.2 1.3.5 1.6.3 1.2-1.1-.4-1.3 0-1.7 1.8-1.8 1.9-.1 2.3.2 1.8 1.5-.5 1.5-.5 1.5 1 0 .9-.9 1.8-3.1 2.1-5l.4-3.4.1 3.8c.2 4 2.5 4.9 2.9 1.1.3-1.8.2-1.8-.7.1-.8 1.6-.9 1.3-.6-1.7.3-2.3 0-3.8-.7-4.1-.7-.3 0-.4 1.5-.3 2.3.1 2.7.5 2.2 2.1-.4 1.4-.2 1.6.4.7.9-1.4 4.2-.6 5.4 1.2.5.7.8.7.8-.2 0-.7-1.1-1.7-2.5-2.2-3.5-1.3-3.1-1.8 1.5-1.8 2.4-.1 4 .4 4 1.1 0 .7.4.6 1-.3.8-1.2 1-1.2 1-.1 0 .9.4 1 1.3.4 1.4-1.2 4.8-1.3 4.1-.2-.2.4.1 1.1.7 1.5.7.4.9.3.5-.4-1-1.6 2.1-4.1 4.4-3.5 1.1.3 2 0 2-.6s-1.3-1.1-3-1.1c-1.6 0-3-.4-3-.9 0-.4 1.1-.6 2.5-.3 1.5.2 2.5 0 2.5-.7 0-.6-.8-1.2-1.7-1.2-4.1-.3 4.6-1.5 9.4-1.4 3.6.2 5.4-.2 5.7-1.1 1-2.6 3.5-1.4 4.7 2.3zm60.9-.6c0 .5.7.9 1.6.9 1.3 0 1.5.7 1 3.2-.5 3-.4 3.1.9 1.4 1-1.3 1.1-2.4.4-3.7-.5-1.1-.6-1.9-.2-2 .4 0 1.8-.2 3.1-.3 2.5-.3 3 .9.7 1.8-.8.3-1.5 0-1.5-.6s-.3-.9-.6-.5c-.4.3-.4 1.3 0 2.2.4 1.3 1 1.4 2.6.5 1.3-.7 2-.7 2 0 0 .5 1.2 1 2.6 1 1.7 0 2.8.6 3.1 1.9.3 1.1 1.1 1.7 1.8 1.5.8-.3 1.8.4 2.4 1.5 1.4 2.6 1.4 2.8-.4 2.8-.9 0-1.4-.6-1.1-1.3.5-1.3-1.1-1.3-3.2-.1-.8.6-1.5 0-2.2-1.7-.5-1.4-1.2-2.6-1.5-2.6-.2 0 0 1.2.6 2.6 1.2 3.4.9 3.6-2.5 1.9-1.5-.8-4.2-1.4-5.9-1.2-2.7.2-3.2-.1-3.1-2.1.1-2.2-1.1-3.1-1.8-1.1-.5 1.6-3.5 0-4.2-2.4-.3-1.1-.1-2.6.4-3.2 1.1-1.3 5-1.7 5-.4zm-7 1.8c0 1.1.3 2.7.7 3.6.5 1.5.4 1.5-1.6-.1-1.2-1-1.7-2-1.1-2.2.5-.2 1-.8 1-1.3 0-.6-.4-.7-1-.4-.5.3-1 .1-1-.4 0-.6.7-1.1 1.5-1.1s1.5.9 1.5 1.9zm-45.7 2.1c.5 2.2.3 2.6-1.6 2.7-1.2 0-1.6-.1-.9-.4.6-.3 1.2-1.6 1.2-3.1 0-3 .5-2.7 1.3.8zm35.3-.3c-.7.7-2.6-.7-2.6-1.9 0-.6.6-.6 1.5.2.9.7 1.3 1.5 1.1 1.7zm-813 1.9c-.5 1.2-.2 1.5 1 1 1.4-.5 1.5-.4.4.9-1.6 2-5.6 1.9-6.4-.1-.3-.8-.2-1.2.4-.9.6.3 1-.1 1-.9 0-1 .9-1.6 2.1-1.6 1.5 0 1.9.4 1.5 1.6zm18.4.4c0 .5-.5 1-1.1 1-.5 0-.7-.5-.4-1 .3-.6.8-1 1.1-1 .2 0 .4.4.4 1zm75.8 1.7c-1 .2-1.8.9-1.8 1.4 0 .6.5.7 1.2.3.6-.4 1.8.2 2.6 1.2 1.4 1.8 1.4 1.8.8-.3-.4-1.2-.2-2.4.5-2.9.8-.5.9-.3.4.6-.4.7-.2 1.6.5 2 2 1.2-.5 4.7-3.5 4.7-1.4 0-2.5-.5-2.5-1.1 0-.6-.5-.4-1.1.4-.9 1.2-1 1.1-.4-.5.4-1.1.8-2.9 1-4 .3-2.6.2-2.5 2.3-2.4 1.6.1 1.6.2 0 .6zm-42.3 5.3c.3.5.1 1-.4 1-.6 0-1.1-.5-1.1-1 0-.6.2-1 .4-1 .3 0 .8.4 1.1 1zm697 1c.3.5.1 1-.4 1-.6 0-1.1-.5-1.1-1 0-.6.2-1 .4-1 .3 0 .8.4 1.1 1zM235 313.1c1.2 2.2.6 3.9-1.6 3.9-.8 0-1.4.7-1.4 1.5s-.7 1.5-1.5 1.5-1.5.6-1.5 1.3c0 2.1-5.6 4-8 2.7-2.5-1.4-2.5-2.1.1-4.9 1.7-1.8 2.8-2.2 5.5-1.6 2.3.4 3.4.2 3.4-.6 0-.6-.7-.9-1.5-.6-.8.4-1.7.2-2-.4-.4-.5.1-1.2 1-1.5 1.1-.5 1.3-1 .5-1.9-.7-.9-.1-1.2 2.5-1.3 2.5-.1 3.8.4 4.5 1.9zm565.6 2.6c-1.1 1.1-1.9-.6-1.1-2.4.8-1.7.8-1.7 1.2 0 .3 1 .2 2.1-.1 2.4zm-1 1.6c1.6-.6 1.7-.2.8 2.1-.3.9-1 1.6-1.6 1.6-.5 0-.6-.5-.3-1 .3-.6.1-1-.4-1-.6 0-1-1-1-2.3.1-1.6.3-1.7.6-.5.2 1 1 1.5 1.9 1.1zm-127.3 9c.9.4 2.5 1 3.5 1.3 1.1.4 1.3.8.5 1.1-.7.3-1.3 1.1-1.3 1.9 0 .9.5 1.2 1.2.8.7-.4.8-.3.4.4-1.3 2.1-2.8 1.3-2.4-1.2.4-1.9.1-2.4-1.3-2.3-1.4.1-1.5.5-.8 2 1.9 3.5.7 5.2-3.7 5.2-3.3.1-4-.3-3.7-1.5.3-.9-.3-2.2-1.1-2.9-.9-.8-1.6-1.8-1.6-2.4 0-.7.4-.7 1.2.1 1.5 1.5 3.2 1.6 2.3.2-1.9-3.1 1.8-4.6 6.8-2.7zm-52.3 2.1c0 .8-.4 1.7-.9 2.1-1.2.7-2.4-1.2-1.6-2.5.9-1.5 2.5-1.2 2.5.4zm216 1.7c.7 1.2.5 1.9-.6 2.3-1.2.5-1.4.1-.8-1.6.6-2 .5-2.1-1-.9-1.3 1.1-1.6 1.1-1.6.1 0-.8-.3-1.1-.6-.8-.9 1 2 4.9 3.3 4.4.7-.3 1.5-.1 1.8.4.4.6.1 1-.4 1-.6 0-1.1.6-1.1 1.4 0 2.4-2 2.9-3.9 1-.9-1.1-1.7-3.5-1.7-5.6 0-3.4.2-3.6 2.8-3.6 1.7.1 3.3.9 3.8 1.9zm7.6-.7c1.2 1.3 1.8 1.3 4.1.1 2.1-1.1 2.9-1.2 3.5-.2.6.9.8.9.8-.2 0-1 .3-1.1 1.4-.2 1.1.9 1.5.9 1.8-.1.3-.8.9-.5 1.7 1 1.2 2.3.7 6.2-.8 6.2-.5 0-.7-1.2-.5-2.8.4-2.6.3-2.6-.4-.2-.7 2.1-1.4 2.5-5 2.6-2.3.1-4.2-.1-4.2-.5s-1.2-.7-2.7-.6c-2.1 0-2.8-.5-2.8-2 0-1.1-.4-2.6-.8-3.3-1.2-1.7 2.1-1.6 3.9.2zm16.4.2c0 .8-.4 1.2-1 .9-.5-.3-1-1-1-1.6 0-.5.5-.9 1-.9.6 0 1 .7 1 1.6zm15.4-.8c.3.4.7 2.8 1 5.3.4 3.8.3 4.2-.8 2.6-1.5-2-2.7-2.2-2.3-.5.1.6-.5 1.3-1.4 1.5-1.9.5-3.4-3.6-1.8-5.2.7-.7.8-.4.3 1-.7 1.7-.6 1.7.7.6.8-.8 1.5-2.2 1.5-3.2 0-1.2-.4-1.5-1-.9-1.6 1.6-3 1.1-1.6-.5 1.3-1.6 4.6-2 5.4-.7zm26 .3c-.5.8-.1.8 1.4 0 3-1.6 3.5-1.4 2.8 1.3-.3 1.4-.2 2.7.3 3 1.3.8.8 4.9-.7 5.4-.7.2-1.6-.5-1.9-1.7-.3-1.2-1-1.8-1.7-1.4-.6.4-.6.1.2-.9 1.3-1.7.5-2.9-3-4.1-2.7-1-2.2-2.7.8-2.7 1.6 0 2.3.4 1.8 1.1zm7.1 2.8c.2 1.7-.1 3.4-.7 3.7-.7.5-.8.2-.3-.6.4-.7.3-1.5-.3-1.9-.6-.4-.9-1.7-.5-2.9.7-2.9 1.3-2.3 1.8 1.7zm8.9-2.2c-.5 1.5-.4 1.5.4.4 1.1-1.6 4.6-2.5 3.6-1-.7 1.2.9 1.2 2.2 0 .5-.6 1 .7 1 3.5l.2 4.4h-3.7c-4.8 0-5.9-.9-6.6-5.3-.6-3.2-.4-3.7 1.4-3.7 1.5 0 1.9.5 1.5 1.7zm22.9.4c1.4 5.3-3.8 7.8-8.4 4-2.2-1.8-2.3-2.1-.8-3.6 1.5-1.5 1.7-1.4 2.2 1.2.4 1.9 1.2 2.9 2.6 3 2.7.2 4.5-2.1 3.3-4.3-.9-1.6-1.1-1.6-2.3.4-1.8 2.9-2.9 2.8-2.9-.1 0-2 .5-2.4 2.9-2.5 2.1 0 3 .5 3.4 1.9zm-308.3 1c0 .5-.4.9-1 .9-.5 0-1-.7-1-1.6 0-.8.5-1.2 1-.9.6.3 1 1 1 1.6zm23 2.9c-1.4 2.6-1.6 2.5-1.4-.8.2-4.3.4-4.8 1.5-3 .7 1.2.6 2.4-.1 3.8zm122-.9c0 .5-.4.9-1 .9-.5 0-1-.7-1-1.6 0-.8.5-1.2 1-.9.6.3 1 1 1 1.6zm161.8-.9c-.2.6-1 1.4-1.6 1.6-.7.2-1-.2-.6-1.2.7-1.8 2.8-2.2 2.2-.4zm-243 3.6c.2.7-.3 1.2-1.2 1.2-.9 0-1.6-.7-1.6-1.6 0-1.7 2.2-1.4 2.8.4zm89.2-.8c-.8.5-1.9 1-2.5 1-.5 0-.3-.5.5-1s2-1 2.5-1c.6 0 .3.5-.5 1zm-90.4 8.9c-1.8.7-1.8.8-.3 1.4.9.3 1.7 1.4 1.7 2.3 0 1.1-.5 1.4-1.6 1-.9-.3-2-.6-2.5-.6-1.3 0-1.1-2.4.3-3.8.7-.7 1.9-1.2 2.8-1.1 1.1 0 1 .3-.4.8zm109.4 1.5c0 .7.3.7.8-.1.4-.7 4.1-1.1 10.4-1 5.3.1 9.4.5 9.2.9-.3.4.4.8 1.5.8 1.2 0 2.1.2 2.1.4s.3 1.3.6 2.3c.6 1.6.5 1.6-.9-.2-.9-1.1-1.7-1.5-1.7-.8 0 .6.7 1.9 1.6 2.8 1.1 1 1.4 2.4 1 4.2-.6 2.3-.6 2.4.9.9.9-.9 1.4-2 1-2.6-.6-1 5.8-.7 8.6.4 1.2.5 1.8 0 2.3-1.7.5-2.3 3.1-3.7 6.6-3.7 1.2.1 1.1.3-.2 1.1-1 .5-1.8 1.5-1.8 2.2 0 .8.3.9.8.1.4-.6 1.6-1.6 2.7-2.2 1.1-.6 1.4-1.2.8-1.2-1.8 0-1.6-2 .2-2 .8 0 1.5-.3 1.5-.8 0-.4 2.1-.8 4.8-.9 3.3-.2 4.3 0 3.2.7-.8.5-2.7 1-4.2 1-3 0-4.5 1.5-2.7 2.6.8.5.9.3.4-.6-.6-1 0-1.2 2.9-.7 2.2.3 3.4.2 3.1-.4-.4-.5-.1-.9.5-.9.7 0 1 .7.7 1.5-.4.8-.2 1.7.3 2 .6.4 1 .1 1-.4 0-.6 1.3-1.1 2.8-1.1 2.1 0 3.2.7 4 2.5.6 1.4 1.6 2.5 2.1 2.5 1.7 0 2.1 3.1.6 4.6-.8.9-1.5 2.1-1.5 2.7 0 .8.3.7.9-.2.5-.7 1.3-1.1 1.9-.7 1.3.8 2.2-4 .9-5.3-.7-.7-.7-1.1-.1-1.1 1.2 0 3.4 2.1 3.4 3.3 0 .4-.4.6-.9.2-.6-.3-.9.3-.9 1.2.1 1-.2 2.8-.6 4-.4 1.4-.3 2.3.3 2.3.5 0 1.2-.8 1.4-1.8.4-1.3.5-1.2.6.5.1 1.7-.6 2.5-2.6 3l-2.8.7 2.8.6c2.5.4 2.6.7 1.5 2.2-.7 1-2.8 2.1-4.7 2.4-3.1.7-3.4.5-2.9-1.4.4-1.2.3-2-.2-1.7-.4.3-1 1.9-1.4 3.7-.5 2.6-1.1 3.3-3.1 3.4-2.1.2-2.3-.1-1.5-1.6.6-1 1-2.5.9-3.2 0-.7-.4-.3-1 1-.5 1.3-1.4 2-2 1.6-.8-.4-.7-.9.2-1.5 1-.6.5-.9-1.5-.9-2.8 0-2.8.1-1.3 1.8 1 1 1.7 2.1 1.7 2.4 0 .3-2.7.5-5.9.4-5.8-.1-5.9-.2-4-1.9 1-1 1.9-2.3 1.9-2.9 0-.6-1.2.2-2.7 1.9-2.3 2.5-3.4 3-6.1 2.6-1.8-.3-3.5-.9-3.8-1.4-.7-1.2-4.4-1.1-4.4.1 0 .5-1.2 1-2.7.9l-2.8-.1 2.5-.8 2.5-.7-2.8-1.2c-3.8-1.5-9.4-1.4-10 .1-.3.9-1.4.4-3.3-1.5l-2.9-2.7h5.2c5.3 0 10.3-1.6 10.3-3.2 0-.5-.4-.6-1-.3-.5.3-2-.1-3.2-.9-1.5-1.1-2.6-1.2-3.9-.6-2.3 1.3-4.9.3-7.8-2.9-1.3-1.4-2-2.1-1.7-1.5.4.8-.9 1.2-3.9 1.1-3.9 0-4.6-.4-5.1-2.4-.8-3.1-2.2-2.9-3 .3-1 3.9-2.1 1.2-2.9-6.8l-.6-6.7 3.6.1c1.9.1 3.5.6 3.5 1.2zm43.5.2c-.9.9-1.9 1.3-2.3 1-.3-.4 0-1.1.8-1.6 2.4-1.5 3.3-1.1 1.5.6zm18.8-.9c-.7.2-1.9.2-2.5 0-.7-.3-.2-.5 1.2-.5s1.9.2 1.3.5zm-166.9 2c.3 1 .9 2.4 1.2 3.1.4.8-.3.6-1.5-.4-2.1-1.9-2.8-4.4-1.2-4.4.5 0 1.1.8 1.5 1.7zm-590 1.6c1.3.9 1.7 2.3 1.4 5.1-.3 3.7-.5 3.9-4.1 4.1-4.3.2-5.2-.7-4.9-4.9.4-5.2 3.7-7.1 7.6-4.3zm126.4 2c1.6-.4 2.4 0 3 1.8l.9 2.3 1.8-2.1c1.4-1.7 2.3-1.9 4.1-1.3 1.6.6 2.6.5 3.4-.6 3.2-3.8 6.1-.4 4.4 5.1-.7 2.2-1.3 3.3-1.4 2.5-.1-1-.4-.9-1 .5-.5 1.1-.9 1.4-.9.6-.1-1-1.2-1.2-4.6-.7-3.9.6-4.5.5-4.5-1.1-.1-1.7-.2-1.7-1.3-.1-.9 1.1-1.8 1.4-2.8.7-.8-.5-2.5-.9-3.9-.9-2 0-2.2.2-1 1 2.1 1.5-3.7.1-7.2-1.6-1.5-.8-4-1.4-5.6-1.4-3.1 0-5.8-2.2-4.7-4 1-1.6 3.5-1.2 3.5.5 0 1.2.4 1.3 1.9.6 1-.6 2-.8 2.3-.6.3.3 2.2-.1 4.4-.9 2.3-.8 4.6-1 5.5-.5.9.4 2.5.5 3.7.2zM691 350c0 .5-.2 1-.4 1-.3 0-.8-.5-1.1-1-.3-.6-.1-1 .4-1 .6 0 1.1.4 1.1 1zm-427 2.2c0 .7-.4 1.9-.9 2.6-.6 1-1 1-2-.2-.7-.8-1-2-.6-2.6.9-1.4 3.5-1.3 3.5.2zm576-.2c0 .5-.2 1-.4 1-.3 0-.8-.5-1.1-1-.3-.6-.1-1 .4-1 .6 0 1.1.4 1.1 1zm93.5 2.1c-.4.5-1.6.8-2.8.8-1.7-.1-1.8-.2-.4-.6.9-.2 1.7-.9 1.7-1.4 0-.6.5-.7 1-.4.6.4.8 1.1.5 1.6zm-711 2.9c.3.5.1 1-.4 1-.6 0-1.1-.5-1.1-1 0-.6.2-1 .4-1 .3 0 .8.4 1.1 1zm580.5 2c0 .5-.5 1-1.1 1-.5 0-.7-.5-.4-1 .3-.6.8-1 1.1-1 .2 0 .4.4.4 1zm-643.7 1.7c-.7.2-1.9.2-2.5 0-.7-.3-.2-.5 1.2-.5s1.9.2 1.3.5zm727.9 1.8c-.2 1.4-.6 2.5-.8 2.5-.2 0-.4-1.1-.4-2.5s.4-2.5.9-2.5c.4 0 .6 1.1.3 2.5zm6.8-2.1c0 .3-.4.8-1 1.1-.5.3-1 .1-1-.4 0-.6.5-1.1 1-1.1.6 0 1 .2 1 .4zm27.9 1.5c-1.3 1.1-2.6 1.8-2.8 1.6-.6-.7 2.4-3.4 3.8-3.5.7 0 .3.8-1 1.9zm-30.9.1c0 .5-.4 1-1 1-.5 0-1-.5-1-1 0-.6.5-1 1-1 .6 0 1 .4 1 1zm-840 7c0 .5-.2 1-.4 1-.3 0-.8-.5-1.1-1-.3-.6-.1-1 .4-1 .6 0 1.1.4 1.1 1zm618 2c0 .5-.4 1-.9 1-.6 0-1.3-.5-1.6-1-.3-.6.1-1 .9-1 .9 0 1.6.4 1.6 1zm199.1 4.3c-1 .9-1.1.8-.5-.6.3-1 .9-1.5 1.2-1.2.3.3 0 1.1-.7 1.8zm56.9-.9c0 .2-.9.6-2 .9-1.1.3-2 .1-2-.4s.9-.9 2-.9 2 .2 2 .4zm-257 5c0 1.1-1.9 1.5-2.5.6-.3-.5.1-1 .9-1 .9 0 1.6.2 1.6.4zm-567.6 14.1c-.4.8-1 1.2-1.5.9-1.4-.8-1-2.4.6-2.4.9 0 1.2.6.9 1.5zM548 411.7c0 1.3-.3 1.3-1.5.3-.8-.7-1.5-1.9-1.5-2.7 0-1.3.3-1.3 1.5-.3.8.7 1.5 1.9 1.5 2.7zm-47.5.6c-.4.8.7 1.3 3.1 1.4 3.5.2 6.2 2.1 4.5 3.3-.4.3-1 1.3-1.4 2.2-.9 2.6-4.3 2.2-5.1-.5-.5-1.7-.8-1.9-1.5-.8-1 1.6-3.1.6-3.1-1.4 0-2.6 2-6.6 3-6 .5.3.7 1.1.5 1.8zM386 421.1c0 .5-.4.9-1 .9-.5 0-1-.7-1-1.6 0-.8.5-1.2 1-.9.6.3 1 1 1 1.6zm-261.3 8.1c-.3.8-.6.5-.6-.6-.1-1.1.2-1.7.5-1.3.3.3.4 1.2.1 1.9zm449.6-.7c.4.8.2 1.7-.3 2-.6.4-1-.3-1-1.4 0-2.5.6-2.7 1.3-.6zm2.7 4.6c0 .5-.4.9-1 .9-.5 0-1-.7-1-1.6 0-.8.5-1.2 1-.9.6.3 1 1 1 1.6zm-155.8 30.1c-.7.7-1.2.8-1.2.2 0-.6.3-1.4.7-1.7.3-.4.9-.5 1.2-.2.2.3-.1 1.1-.7 1.7zM563 466c0 1.6.5 3 1 3 .6 0 1 .4 1 1 0 .5-.9 1-2 1-1.7 0-1.9.3-1 1.9 1.1 2.2.3 5.4-1.3 4.8-.7-.2-1.4-1.4-1.8-2.8-.4-1.3-.7-1.7-.8-1-.2 2.4-1.8-.1-2.6-3.9-.7-3.1-.6-3.3.9-2.1 1.4 1.2 1.6 1 1.6-1.2 0-2.3.9-3.1 4.3-3.6.4 0 .7 1.2.7 2.9zm-9 6.4c0 .3-.4.8-1 1.1-.5.3-1 .1-1-.4 0-.6.5-1.1 1-1.1.6 0 1 .2 1 .4zm-434.3 24.2c-.3.3-1.2.4-1.9.1-.8-.3-.5-.6.6-.6 1.1-.1 1.7.2 1.3.5zm422.1 12.6c-.3.7-1.1 1.3-1.8 1.3s-1.5-.6-1.7-1.3c-.3-.7.4-1.2 1.7-1.2 1.3 0 2 .5 1.8 1.2zm-112.1 34c-.3.8-.6.5-.6-.6-.1-1.1.2-1.7.5-1.3.3.3.4 1.2.1 1.9zM939 804.5c0 .8-.4 1.5-1 1.5-.5 0-1-.7-1-1.5s.5-1.5 1-1.5c.6 0 1 .7 1 1.5zm7.8 49.7c-.3.7-1.1 1.3-1.8 1.3s-1.5-.6-1.7-1.3c-.3-.7.4-1.2 1.7-1.2 1.3 0 2 .5 1.8 1.2z"/><path d="M374.8 99.8c-1 .2-1.8 1.2-1.8 2.3 0 1.9 0 1.9 2.2-.1 2.4-2.2 2.2-2.8-.4-2.2zM528.6 242.9c-.3.5-3.3.7-6.6.4-4.1-.4-6-.2-6 .6 0 .6-1.5 1.1-3.5 1.1-1.9 0-3.5.4-3.5.9 0 1.8-9.3 4.4-20.8 5.8-3.7.4-4.3.8-3.9 2.4.4 1.6.1 1.9-1.3 1.4-1.9-.6-3.3 1.6-2.4 3.9.6 1.4-4.3 11.8-5.8 12.4-.5.2-.8 1.3-.8 2.5s-.7 3.1-1.5 4.1c-2.1 2.7-1.9 3.9.5 3.1 1.1-.4 2-.2 2 .4 0 1-2.2 1.5-5.7 1.4-1.8-.1-1.6 2.2.2 3.7 1.3 1.1 1.3 1.5.2 2.9-.9 1-1.1 2.6-.6 4.6.3 1.6.7 2.6.8 2.2 0-.4 1.5.6 3.2 2.4l3 3.1 3.5-1.7c2-.9 4.4-1.5 5.4-1.2 2.4.6 3.3-.2 4.5-3.8 1.4-4.1 5-4.5 8.2-1.1 2.8 3 8.7 3.5 13.1 1.2 1.5-.8 3.9-1.7 5.3-2 2.4-.5 4.2-3.4 6.3-9.9.9-2.9 7.6-1.3 7.6 1.8 0 2 1.5 1.9 9.1-.5 6.7-2.2 9.9-4.4 9.9-6.8 0-1.1-2.9-4.6-5.3-6.3-.1-.1-6-.5-13.2-.8-13-.6-13-.6-13.3-3.1-.3-2.2.3-2.8 4.5-4.3 2.6-.9 5.8-1.7 7-1.7 1.2 0 2.5-.5 2.8-1 .3-.6 1.8-1 3.3-1 1.5 0 4.2-.9 6.1-2.1 3.2-1.9 3.4-1.9 4.7-.2 1.3 1.7 1.4 1.7 2-.5.4-1.3 1.4-2.2 2.5-2.2s1.9-.5 1.9-1.1c0-.6-.6-.9-1.4-.6-.8.3-2 0-2.6-.8-.6-.8-1.8-1.1-2.5-.9-2.5 1-4-.8-2-2.3 1.1-.7 1.4-1.3.7-1.3-.6 0-.9-.6-.6-1.4.3-.7-.2-1.6-1-1.9-.9-.4-1.6-.2-1.6.3s-1.5.1-3.2-1c-3.4-2.1-8.3-2.7-9.2-1.1zM476 279c0 .5-.5 1-1.1 1-.5 0-.7-.5-.4-1 .3-.6.8-1 1.1-1 .2 0 .4.4.4 1z"/><path d="M549 258.9c0 2.9 1.4 4.2 3.8 3.3.6-.2 1.2-1 1.2-1.8s.5-1.4 1.1-1.4c.5 0 .7-.5.3-1.2-.5-.8-1.1-.6-1.9.5-1.6 2.3-2.5 2.1-2.5-.3 0-1.1-.4-2-1-2-.5 0-1 1.3-1 2.9zM557 259.5c0 .8-.5 1.5-1.2 1.5-.9 0-.9.3 0 1.2 1.8 1.8 5.4 1.6 7.4-.3 1.5-1.6 1.5-1.8 0-2.4-3.8-1.5-6.2-1.5-6.2 0zM471.2 263.9c-.9.5-1.2 2.2-1 4.7l.4 3.9.8-3c.5-1.7 1.4-3.3 2-3.7 1.6-1-.6-2.9-2.2-1.9zM343.5 266.2c-3.3.5-7.7.7-9.8.4-2.1-.2-5.1-.1-6.7.4-2 .6-3 .5-3.3-.3-.3-.7-2.4.7-4.8 3.3-2.4 2.5-5.6 5.1-7 5.9-4.5 2.2-16.9 15-16.9 17.2 0 .7-.7 2-1.6 3-1.5 1.6-1.4 1.7.3 1.3 1.1-.3 2.6.3 3.7 1.5 2 2.2 5.6 2.8 5.6 1 0-.6.6-.9 1.4-.6.8.3 3.1-.3 5-1.3 2.1-1 3.1-2 2.4-2.3-.9-.3-.6-.7.7-1.3 1.1-.4 3.2-2.1 4.8-3.7 1.6-1.6 4.5-3.3 6.5-3.8 5.8-1.3 15.4-1 18.2.6 1.4.8 3.3 1.8 4.3 2.1 2.5.9 2.1 2.1-1 2.7-17.2 3.4-21.2 4.8-25.2 9.1-2 2.1-2.2 3.1-1.6 7.5.6 4.5 1 5 3.6 5.6 1.8.4 3.6.2 4.5-.6.9-.7 5.3-1.5 10-1.7 4.6-.3 8.1-.8 7.9-1.3-1.1-1.6 1.6-1.9 5-.5 4.2 1.8 8.8 2.1 16.5 1.1 7.2-.9 13.1-.8 16.2.4 5.5 2.1 18.4 2.4 25.5.7 6.2-1.6 7.1-1.6 9.8-.2 3 1.6 3 1.6 3.7-1.6.7-3.6.2-5.5-2.4-8.2-1-1.1-1.8-2.6-1.8-3.3 0-.7-.7-1.3-1.6-1.3-2.3 0-4.5-2.6-4.9-5.7-.1-1.6-.8-2.7-1.5-2.5-.7.1-1.8-.3-2.6-.9-.8-.6-1.4-.8-1.4-.3s-.5.1-1.1-.9c-.5-.9-1.6-1.7-2.3-1.7-.8 0-1.7-1.1-2-2.5-.4-1.4-1.1-2.5-1.6-2.5s-3-1.4-5.6-3.1c-2.5-1.8-6-3.3-7.8-3.5-1.7-.2-3.8-.7-4.6-1-.8-.4-2.4-.7-3.6-.8-1.2-.1-2.9-.9-3.8-1.9-1-.9-2.3-1.8-2.9-1.9-5.3-.6-9.1-.8-14.4-.8-5.7.1-8.2-1.1-5-2.3 1.6-.7.3-.6-6.8.5zM598 349c0 1.1.2 2 .4 2s.6-.9.9-2c.3-1.1.1-2-.4-2s-.9.9-.9 2zM585 411.6c0 .8.5 1.2 1 .9.6-.3 1-1 1-1.6 0-.5-.4-.9-1-.9-.5 0-1 .7-1 1.6zM478.5 453.4c-1.1 1.4-2.5 2.2-3.4 1.9-1.4-.4-1.4-.4-.1.6 2 1.5 6.1 1.3 8.3-.3 1.8-1.4 2.3-4.6.7-4.6-.5 0-1 .6-1 1.4 0 .8-.8 1.7-1.7 2.1-1.5.5-1.6.4-.5-.6.6-.7 1.2-1.7 1.2-2.1 0-1.6-1.7-.8-3.5 1.6zM542.3 464.5c0 .8.7 1.5 1.5 1.5.7 0 1.2-.5 1-1.2-.6-1.8-2.5-2.1-2.5-.3zM539.5 484c-.3.5-.1 1 .4 1 .6 0 1.1-.5 1.1-1 0-.6-.2-1-.4-1-.3 0-.8.4-1.1 1zM503 486.6c0 .8.5 1.2 1 .9.6-.3 1-1 1-1.6 0-.5-.4-.9-1-.9-.5 0-1 .7-1 1.6zM414.3 491.6c-1.6 1.6-1.7 3.4-.3 3.4.6 0 1-.5 1-1.2 0-.9.3-.9 1.2 0 1.6 1.6 4.5 1.5 5.2-.1.3-.6.4-.3.1.9-.3 1.1.1 3.9.9 6.2.8 2.3 1.1 4.2.6 4.2-.6 0-1 .5-1 1 0 1.6 6.3 5 8.1 4.5.9-.3 2.8-.1 4.3.5 2.2.8 2.8.7 3.3-.6.3-.9.1-1.9-.6-2.3-.7-.5-.4-1.5 1.1-3.1 1.6-1.7 1.8-2.2.6-1.8-1.2.5-1.9-.1-2.7-2.3-.7-2-1.7-2.9-3.1-2.9-1.3 0-2.4-.8-2.7-2-.7-2.7-6.1-5.2-9.6-4.4-1.5.3-3.3.1-4-.4-.8-.7-1.6-.6-2.4.4zM492 498.5c0 .8.5 1.5 1 1.5.6 0 1-.7 1-1.5s-.4-1.5-1-1.5c-.5 0-1 .7-1 1.5zM456.7 499.7c-.3.5-.2 1.5.3 2.3 1.2 1.9.1 4-2 4-1.2 0-1.9 1-2.2 3-.3 1.7-.1 3.3.4 3.6 1.3.8 2.8-.6 2.8-2.7 0-1.1.7-2.2 1.5-2.5.8-.4 1.5-1.2 1.5-1.9 0-.9 1.1-1.3 2.9-1.3 2.4.1 3.1.6 3.3 2.7.2 1.4-.1 3.6-.6 4.8-1.2 3.1 0 5.5 2.6 5.1 1.8-.3 2.2-1 2.4-5.6.1-2.9.8-6 1.5-6.8 1-1.3 1-1.7-.2-2.4-1-.7-1.6-.4-2 .8-.5 1.5-.7 1.4-1.3-.6-.8-2.5-2.1-2.9-3-.7-.8 2.1-3.2 1.9-5.5-.6-1-1.1-2.1-1.7-2.4-1.2zM446.4 504.4c-.3.9-1.1 1.3-1.7.9-.6-.4-.8.2-.4 1.8.4 1.3.7 3.1.7 3.9.1 1.2.3 1.1 1.1-.3.5-.9.7-2.2.4-2.8-.4-.5-.1-1.7.6-2.5.6-.8.9-1.7.6-2.1-.4-.3-.9.2-1.3 1.1zM482.2 508c0 1.4.2 1.9.5 1.2.2-.6.2-1.8 0-2.5-.3-.6-.5-.1-.5 1.3z"/><path d="M470 512c0 .5.5 1 1.1 1 .5 0 .7-.5.4-1-.3-.6-.8-1-1.1-1-.2 0-.4.4-.4 1zM475.9 538.8c-.9.9-2 2.8-2.4 4.2-.6 2.2-.3 2 1.9-.9 3.4-4.6 3.7-6.7.5-3.3zM449 553.1c0 .5.5.7 1 .4.6-.3 1-.8 1-1.1 0-.2-.4-.4-1-.4-.5 0-1 .5-1 1.1zM868.8 289.6c-.3.5.8 2.2 2.5 3.9 1.7 1.6 2.4 2.1 1.5 1-.8-1.1-2-2.8-2.5-3.9-.6-1-1.3-1.5-1.5-1zM874.5 290c.3.5.8 1 1.1 1 .2 0 .4-.5.4-1 0-.6-.5-1-1.1-1-.5 0-.7.4-.4 1zM252.5 322c-.4.6-1.3.9-2.1.6-.8-.3-1.4-.1-1.4.3 0 1.6 2.4 1.8 3.9.4.7-.8 1.1-1.6.8-1.9-.3-.3-.8 0-1.2.6zM153.5 297c-.4.6-1.1.7-1.7.4-.7-.5-.8-.2-.3.6.6 1 .4 1.2-1.1.6-1.4-.5-1.6-.4-.8.4 1.3 1.3 4 .4 4.8-1.6.6-1.6 0-1.9-.9-.4zM159.3 300c0 2.5.2 3.5.4 2.2.2-1.2.2-3.2 0-4.5-.2-1.2-.4-.2-.4 2.3zM840.5 308c-.3.5-.2 1 .4 1 .5 0 1.3-.5 1.6-1 .3-.6.2-1-.4-1-.5 0-1.3.4-1.6 1zM826.5 311.2c-1.4 2.9-1.4 3.1 0 1.4.8-1.1 1.5-2.3 1.5-2.7 0-.4.8-1 1.8-1.2 1.6-.4 1.6-.5 0-.6-1-.1-2.4 1.2-3.3 3.1zM806.4 314.4c-.3.8-.4 2.3-.2 3.3.3 1.3.7.9 1.5-1.5 1.2-3.1-.1-4.8-1.3-1.8zM833.7 315.1c.4 1.3.8 1.8 1.1 1 .2-.7-.1-1.8-.6-2.3-.8-.8-.9-.4-.5 1.3zM821.6 315.6c-.3.8-1.1 1.2-1.7.8-.7-.4-.9-.3-.6.3.6.9 2.2 1 6.1.4 1-.1-1.3-3.1-2.4-3.1-.4 0-1.1.7-1.4 1.6zm2.4.4c0 .5-.5 1-1.1 1-.5 0-.7-.5-.4-1 .3-.6.8-1 1.1-1 .2 0 .4.4.4 1zM781 323.1c0 .5-.4.8-.9.4-.5-.3-1.2-.1-1.5.4-.8 1.3 2.2.7 3.6-.7.9-.9.9-1.2 0-1.2-.7 0-1.2.5-1.2 1.1zM789.2 324c0 1.4.2 1.9.5 1.2.2-.6.2-1.8 0-2.5-.3-.6-.5-.1-.5 1.3zM803.5 323.1c-.4.6-.5 1.2-.2 1.5.2.3.7-.2 1-1.1.7-1.7.1-2-.8-.4zM781.9 326.7c-1.3 1.4-1.9 2.3-1.3 2 .7-.4 1.7 0 2.4.8s1.8 1.5 2.4 1.5c.6 0 0-.9-1.3-1.9l-2.4-1.8 2.4-1.7c1.3-.9 1.9-1.6 1.3-1.6-.6 0-2.1 1.2-3.5 2.7zM796.6 329.6c-1.5 1.4-2.6 2.7-2.3 3 .5.5 5.7-4.2 5.7-5.1 0-.8-.4-.6-3.4 2.1zM720.2 331c.9 1.3 1.9 1.8 3.2 1.4 1-.3 1.6-.2 1.3.3-.3.5.3.9 1.3.9 1.9 0 1.9-.1 0-1.8-1-1-2.6-1.5-3.4-1.2-.9.3-1.6.1-1.6-.5s-.5-1.1-1-1.1c-.6 0-.5.8.2 2zM731.3 331.5c-2.1 2.4-1.8 3.6.4 1.4 1.4-1.4 3.3-.3 3.3 1.9 0 1.3.3 1.2 1.6-.6.8-1.2 1.9-2 2.3-1.8 1.3.9 3.4-1.1 2.6-2.5-.6-.9-1-.8-1.6.7-.7 1.7-.8 1.7-.8.1-.1-.9-.6-1.7-1.2-1.7-.5 0-.8.4-.4.9.3.5.1 1.2-.5 1.6-.5.3-1-.1-1-.9 0-2.4-2.2-1.9-4.7.9zm3.7-.5c0 .5-.2 1-.4 1-.3 0-.8-.5-1.1-1-.3-.6-.1-1 .4-1 .6 0 1.1.4 1.1 1zM753 330.5c-.8.9-.8 1.5-.2 1.5 1.2 0 2.6-1.9 1.9-2.6-.2-.2-1 .2-1.7 1.1zM765 330.9c0 .5.5 1.3 1 1.6.6.3 1 .2 1-.4 0-.5-.4-1.3-1-1.6-.5-.3-1-.2-1 .4zM715.4 333.2c1 .6 2.2.6 2.6.2.5-.5-.3-1-1.8-1.1-2.2-.1-2.4 0-.8.9zM760 333.7c.5.2.8.9.4 1.4-.3.5 0 .9.6.9 1.5 0 .7-2.3-.8-2.6-.7-.1-.8 0-.2.3zM768 334.1c0 .5.5.7 1 .4.6-.3 1-.8 1-1.1 0-.2-.4-.4-1-.4-.5 0-1 .5-1 1.1zM727 337.7c0 .7-.7 1-1.7.7-1.4-.5-1.5-.4-.4.4s1.1 1 0 1.5c-1 .4-.9.6.3.6.9.1 1.8.6 2 1.3.3.9.6.9 1.2 0 .4-.7.2-1.2-.3-1.2-.6 0-1.1-.4-1.1-1s.9-.6 2.6 0c3.3 1.3 3.7 1.3 2.8-.2-.4-.7-.3-.8.5-.4.9.6.9 1.1 0 2.2s-.8 1.4.4 1.4c.8 0 1.8-.6 2-1.3.4-.9.8-.8 1.6.3.5.8 1.3 1.1 1.6.8 1.1-1.1-.5-2.8-2.7-2.8-1.4 0-1.8-.5-1.4-1.6.3-.8.2-1.2-.4-.9-2.1 1.3-5.4 1.4-6.2.2-.6-.9-.8-.9-.8 0zM721.5 339c-.3.5-.1 1 .4 1 .6 0 1.1-.5 1.1-1 0-.6-.2-1-.4-1-.3 0-.8.4-1.1 1zM926.7 299.7c-.4.3-.7 1.1-.7 1.7 0 .6.4.6 1.1-.1.6-.6 1.8-.9 2.7-.6 1 .4 1.3.2.8-.5-.8-1.3-2.9-1.6-3.9-.5zM936.3 302.5c-1 1.1-.9 1.3.7 1.2 2-.1 2.6-1.2 1.3-2-.5-.3-1.4.1-2 .8zM230.5 313c.4.6 1.1.8 1.6.5 1.4-.9 1.1-1.5-.7-1.5-.8 0-1.2.5-.9 1zM831 335c0 .5.5 1 1.1 1 .5 0 .7-.5.4-1-.3-.6-.8-1-1.1-1-.2 0-.4.4-.4 1zM919.4 332.2c-.3.5-1 .6-1.5.3-.5-.4-.9-.3-.9.2 0 .4 1.2 1.3 2.6 2 2.2 1 2.4 1 1.4-.3-1-1.1-.9-1.4.3-1.4.9 0 1.8-.4 2.1-.8.2-.4-.4-.8-1.5-.8s-2.3.4-2.5.8zM798 345.7c0 .4.5 1.5 1 2.3.8 1.3 1 1.3 1-.2 0-.9-.4-2-1-2.3-.5-.3-1-.3-1 .2zM806.3 346c.5 1.9 4.4 2.2 4.4.4 0-1.7-1.4-1.8-2-.2-.4 1-.8.9-1.7-.2-1-1.3-1.1-1.3-.7 0zM800.5 351c-.4.6-1 .8-1.4.5-.5-.2-.6.8-.2 2.3.5 2.5.6 2.5.9.4.2-1.2.7-2 1.1-1.8.4.3.8-.1.8-.9 0-1.8-.3-1.9-1.2-.5zM867 354.4c0 .2.9.6 2 .9 1.1.3 1.8.1 1.4-.4-.5-.9-3.4-1.3-3.4-.5zM841 358.5c-.1.5-.2 1.3-.1 1.7 0 .5-.3.8-.9.8-.5 0-1 .5-1 1.2 0 .8.6.7 1.6-.4.9-.9 1.4-2.2 1.1-3-.3-.7-.6-.9-.7-.3zM829.5 362c-.3.5.1 1 .9 1 .9 0 1.6-.5 1.6-1 0-.6-.4-1-.9-1-.6 0-1.3.4-1.6 1zM841.8 363.5c-2.1 2.7-2.2 3.5-.7 3.5.5 0 .7-.5.4-1-.3-.6 0-1.3.9-1.6.8-.3 1.7-1.2 2-2 .8-2.2-.7-1.6-2.6 1.1zM849.5 365c.3.5 1.1 1 1.6 1 .6 0 .7-.5.4-1-.3-.6-1.1-1-1.6-1-.6 0-.7.4-.4 1zM829 370c0 .5.7 1 1.6 1 .8 0 1.2-.5.9-1-.3-.6-1-1-1.6-1-.5 0-.9.4-.9 1zM833 370.8c0 .5 1.4.9 3.1.9 1.7 0 3.5.6 3.9 1.4.5.7 1.2 1 1.7.5.4-.4-.1-1.3-1.2-1.9-2.6-1.5-7.5-2.1-7.5-.9zM842.8 370.7c.6.2 1.2 1.1 1.2 1.9 0 .9.5 1.2 1 .9 1.3-.8-.6-3.5-2.4-3.4-.7 0-.6.2.2.6zM852.5 371c-.3.5-.1 1 .4 1 .6 0 1.1-.5 1.1-1 0-.6-.2-1-.4-1-.3 0-.8.4-1.1 1zM864 372c0 .5.5 1 1 1 .6 0 1-.5 1-1 0-.6-.4-1-1-1-.5 0-1 .4-1 1zM852.6 373.9c.9.9 3.4.9 3.4.1 0-.5-.9-.8-2-.7-1 .1-1.7.3-1.4.6zM349 6c0 .5-.7 1-1.5 1s-1.5.5-1.5 1.1c0 1 5.2.4 7.3-.8 1.6-.9.6-2.3-1.8-2.3-1.4 0-2.5.4-2.5 1zM853.4 33.3c-.3.8-.4 4.3-.2 7.8l.3 6.4h15v-15l-7.3-.3c-5.5-.2-7.4.1-7.8 1.1zM949.5 65.3c-.3.6-.4 18.5-.3 39.7l.3 38.5 2.8.3 2.7.3V64h-2.5c-1.4 0-2.8.6-3 1.3zM917.4 113.3c-.3.8-.4 4.3-.2 7.8l.3 6.4h15v-15l-7.3-.3c-5.5-.2-7.4.1-7.8 1.1zM853.4 161.3c-.3.8-.4 4.3-.2 7.8l.3 6.4h15v-15l-7.3-.3c-5.5-.2-7.4.1-7.8 1.1zM83.5 204c-.3.5-.1 1 .4 1 .6 0 1.1-.5 1.1-1 0-.6-.2-1-.4-1-.3 0-.8.4-1.1 1zM130.5 207c-.3.5-.1 1 .4 1 .6 0 1.1-.5 1.1-1 0-.6-.2-1-.4-1-.3 0-.8.4-1.1 1zM21 212v4h5.2c5 0 5.9-1.5 1.3-2.3-3.2-.5-4.7-1.8-4.2-3.8.3-1.2 0-1.9-.9-1.9-1 0-1.4 1.2-1.4 4zM101 213.5c0 2 .5 2.5 2.5 2.5 3 0 3.2-1.1.7-3.3-2.5-2.3-3.2-2.1-3.2.8zM5 215c0 .5.7 1 1.5 1s1.5-.5 1.5-1c0-.6-.7-1-1.5-1s-1.5.4-1.5 1zM66.5 215c-.3.5-.2 1 .4 1 .5 0 1.3-.5 1.6-1 .3-.6.2-1-.4-1-.5 0-1.3.4-1.6 1zM59.3 227.5c.4 7.1.3 12.5-.2 12.5s-.7.8-.4 1.8c.4 1.6-2.3 5.2-3.4 4.4-.8-.6-2.3-.1-2.3.8 0 .5 1.8 1 4 1h4v-16.5c0-11.8-.3-16.5-1.2-16.5-.8 0-.9 3.4-.5 12.5zM37 220.5c0 1.1 1.1 1.5 4 1.5s4-.4 4-1.5-1.1-1.5-4-1.5-4 .4-4 1.5zM18.5 222.9c-.3.5.2 1.6 1 2.4.8.9 1.5 2 1.5 2.6 0 .6.7.8 1.5.5.8-.4 1.5-1.5 1.5-2.5s-.7-1.9-1.5-1.9-1.5-.5-1.5-1c0-1.3-1.7-1.3-2.5-.1zM69 225c0 .5 1.8 1 4 1s4-.5 4-1c0-.6-1.8-1-4-1s-4 .4-4 1zM45 236c0 2.2.5 4 1 4 .6 0 1-1.8 1-4s-.4-4-1-4c-.5 0-1 1.8-1 4zM8 241.5c0 .8.5 1.5 1 1.5.6 0 1-.7 1-1.5s-.4-1.5-1-1.5c-.5 0-1 .7-1 1.5zM21 241c0 .5.5 1 1 1 .6 0 1-.5 1-1 0-.6-.4-1-1-1-.5 0-1 .4-1 1zM35 244c0 2.2.5 4 1 4 .6 0 1-1.8 1-4s-.4-4-1-4c-.5 0-1 1.8-1 4zM45 260c0 .5 1.8 1 4 1s4-.5 4-1c0-.6-1.8-1-4-1s-4 .4-4 1zM5 263c0 .6.7 1 1.5 1 1.9 0 1.9-.6 0-1.4-.8-.3-1.5-.1-1.5.4zM29 270.5v6.5h8v-13h-8v6.5zM5 273c0 .5 1.8 1 4 1s4-.5 4-1c0-.6-1.8-1-4-1s-4 .4-4 1zM54.8 274.1c-2.5 2.6-2.3 5.9.2 5.9 2.6 0 6-3.4 6-6s-3.8-2.6-6.2.1zM6.8 277.7c1.2.2 3.2.2 4.5 0 1.2-.2.2-.4-2.3-.4s-3.5.2-2.2.4zM78 288v8h6v-16h-6v8zM29 289.5c0 .8.4 1.5.8 1.5.5 0 .9-.7.9-1.5s-.4-1.5-.9-1.5c-.4 0-.8.7-.8 1.5zM64 292c0 2.2.5 4 1 4 .6 0 1-1.8 1-4s-.4-4-1-4c-.5 0-1 1.8-1 4zM11 295c0 .5.5 1 1 1 .6 0 1-.5 1-1 0-.6-.4-1-1-1-.5 0-1 .4-1 1zM135.6 296.9c-.3.5.4 1.1 1.6 1.4 2.9.8 3.2.4.8-1.1-1-.6-2.1-.8-2.4-.3zM133.1 301.6c0 1.1.3 1.4.6.6.3-.7.2-1.6-.1-1.9-.3-.4-.6.2-.5 1.3zM952.5 330c-.3.5-.2 1.8.4 2.7.7 1.4.9 1.2.8-1-.2-3-.3-3.1-1.2-1.7zM935 356.5c-.9 1-.9 1.5-.1 1.5.6 0 1.1-.5 1.1-1.1 0-.6.7-.8 1.6-.5.8.3 1.2.2.9-.4-.9-1.4-2.1-1.2-3.5.5zM930.5 358c-1.6.7-1.7.9-.3.9.9.1 2-.4 2.3-.9.7-1.1.7-1.1-2 0zM5 365.4c0 9.8 1.8 12.4 4.6 6.8 1.1-2 2.3-4 2.8-4.3.5-.4.5-1.2.1-1.9-.5-.9-.4-1.1.3-.6.8.4 1.2 0 1.2-1.1s.5-2.4 1.2-3.1c1.7-1.7.5-2.4-5.2-3l-5-.5v7.7zm3 5.6c0 .5-.4 1-1 1-.5 0-1-.5-1-1 0-.6.5-1 1-1 .6 0 1 .4 1 1zM911.3 361.7c0 .6.5.9 1.1.5.6-.4 1.4-.7 1.8-.7 1.9 0 1.4-1.1-.6-1.1-1.2 0-2.3.6-2.3 1.3zM927.2 364.3c-.6.7-.7 1.9-.3 2.6.6.9 1 .6 1.4-1 .8-2.8.3-3.4-1.1-1.6zM909.7 365.4c-.4 1 .1 1.2 1.4.9 2.3-.6 2.4-.9.5-1.6-.8-.3-1.7 0-1.9.7zM934 365c0 .5.7.7 1.5.4.8-.4 1.5-.8 1.5-1 0-.2-.7-.4-1.5-.4s-1.5.4-1.5 1zM142.3 366.5c-.7.8-1.2 3.3-1.1 5.7l.1 4.3.7-4.5c.6-3.9.7-4 .8-1.3.2 3.1 2 4.7 2.3 2 .1-.6.5.4.9 2.3.6 3 .7 2.7.8-2.5 0-4.2-.2-5.4-.8-4l-.9 2-.1-2c-.2-1.1-.2-2.3-.1-2.8.2-1.2-1.3-.7-2.6.8zM152.6 366.6c-.5 1.2-.2 1.5 1 1 .8-.3 1.8-.6 2-.6.2 0 .4-.5.4-1 0-1.6-2.7-1.1-3.4.6zM915.5 366c-.3.6.1.7.9.4 1.8-.7 2.1-1.4.7-1.4-.6 0-1.3.4-1.6 1zM918.5 367c-.3.5-.2 1 .4 1 .5 0 1.3-.5 1.6-1 .3-.6.2-1-.4-1-.5 0-1.3.4-1.6 1zM157.4 368.2c-.4.7-.3.8.4.4s1.2-.2 1.2.3c0 .6-.4 1.1-1 1.1-.5 0-1 .5-1 1.1 0 .5.5.7 1 .4.7-.4 1 .6.8 2.9-.2 3.4-.4 3.6-3.8 3.7l-3.5.1 4 .8c2.2.4 4.1.7 4.2.6.3-.3.5-3.5.4-7.9-.1-4.5-1.2-6-2.7-3.5zM930 369.5c0 1.4.4 2.5.9 2.5.4 0 .6-1.1.3-2.5-.2-1.4-.6-2.5-.8-2.5-.2 0-.4 1.1-.4 2.5zM936.1 369.3c-1.3 2.1-1.2 2.1.5.5 1-1 1.6-2 1.3-2.2-.3-.3-1.1.5-1.8 1.7z"/><path d="M153.2 370.2c-1.3 1.3-1.6 3.9-.4 3.6.4 0 1.5.2 2.5.7 1.5.6 1.6 1 .5 1.6-.9.6-.9.9-.1.9 1.7 0 2.9-2.3 1.5-2.8-.7-.2-1.2-1.5-1.2-2.8 0-2.6-1-3-2.8-1.2zM939.7 373.1c.6 2.3.9 2.4 1.6.5.3-.8 0-1.7-.7-1.9-1-.4-1.2.1-.9 1.4zM934.6 373.5c-.3.8-.1 1.5.4 1.5.6 0 1-.7 1-1.5s-.2-1.5-.4-1.5-.6.7-1 1.5zM937 373c0 .5.5 1 1.1 1 .5 0 .7-.5.4-1-.3-.6-.8-1-1.1-1-.2 0-.4.4-.4 1zM143.5 378c.3.5.8 1 1.1 1 .2 0 .4-.5.4-1 0-.6-.5-1-1.1-1-.5 0-.7.4-.4 1zM126.5 380.9c-.3.5-.1 1.2.5 1.6 1.2.7 3-.2 3-1.6 0-1.2-2.7-1.2-3.5 0zM146 386.8c0 2.2.4 4.3.9 4.6.5.4.7-1.2.4-3.6-.8-5.7-1.3-6.1-1.3-1zM152 387c0 2.2.3 3.9.8 3.9 1.8-.3 2.6.2 1.4.9-.7.5-1 1.6-.7 2.4.7 1.8 3.5 2.8 8.2 2.8 3.2 0 3.3-.1 3.1-4-.1-2.1.4-4.6 1.1-5.4.8-1 .9-1.6.1-2.1-.5-.3-1-.1-1 .4 0 1.7-3.6 1.3-5-.4-.7-.9-1.9-1.4-2.6-1.1-.7.3-1.6.1-1.9-.4-.4-.6-1.3-1-2.1-1-1 0-1.4 1.2-1.4 4zM128 388c0 3.6-.3 4-2.4 4-1.3 0-2.7-.6-2.9-1.3-.3-.6-.6 0-.6 1.5-.1 1.6.4 2.8 1 2.8.5 0 .7-.5.4-1-.3-.6-.1-1 .4-1 .6 0 1.1 2 1.1 4.6 0 3.8-.2 4.4-1.4 3.5-1-.9-1.5-.8-1.9.3-1.1 2.7 1.4 2.9 3.8.4 1.8-1.9 2.5-4.2 3-10.1.4-4.3.5-7.7.1-7.7-.3 0-.6 1.8-.6 4zM143.2 388.7c-.1 3-.7 5.3-1.4 5.5-.8.3-.6.6.4 1 2 .8 2.5-1.3 1.7-7.2l-.6-4.5-.1 5.2zM79 391c0 .5.5 1 1 1 .6 0 1-.5 1-1 0-.6-.4-1-1-1-.5 0-1 .4-1 1zM26 401c0 .5.5 1 1 1 .6 0 1-.5 1-1 0-.6-.4-1-1-1-.5 0-1 .4-1 1zM96.5 405.3c-.4 1-.5 2.1-.1 2.4 1 1 1.8-.4 1.3-2.4-.4-1.7-.4-1.7-1.2 0zM184.1 406.4c-1.5 1.8-.2 2.6 2.4 1.5 1.1-.4 1.6-.8 1-.8-.5-.1-.3-.6.5-1.1 1.2-.8 1.1-1-.6-1-1.2 0-2.7.6-3.3 1.4zM27 407.5c.8 1.1 1.5 2.1 1.6 2.3.1.2.5-.5.8-1.5.4-.9.4-1.4 0-1-.4.4-1.4.1-2.3-.6-1.4-1.1-1.5-1-.1.8zM125.2 410.5c0 4.4.1 4.7.8 2.1.5-1.6 1.5-3.3 2.2-3.7 1-.7.9-.9-.4-.9-.9 0-1.9-.6-2.1-1.3-.3-.6-.5 1-.5 3.8zM122 411.5c0 2.5.5 4.5 1 4.5.6 0 1-2 1-4.5s-.4-4.5-1-4.5c-.5 0-1 2-1 4.5zM32.5 409c-.3.5-.1 1 .4 1 .6 0 1.1-.5 1.1-1 0-.6-.2-1-.4-1-.3 0-.8.4-1.1 1zM68.7 416.7c-.4.3-.7 1.1-.7 1.7 0 .7.3.7.8 0 .4-.7 1.6-1.4 2.7-1.7 1.9-.5 1.9-.5-.1-.6-1.1 0-2.4.2-2.7.6zM68.7 424c.8 4.6.9 4.7 3.6 2.3 1.2-1.1 2.9-2.3 3.7-2.6.8-.3-.4-.6-2.7-.6-2.3-.1-4.4-.7-4.6-1.4-.3-.6-.3.4 0 2.3zM575.1 505.8c-.1.8 1 4.1 2.3 7.5 3.1 7.9 6.6 18.6 6.6 20.4 0 .7.5 1.3 1 1.3 1.3 0 1.3-4.6 0-9-.6-1.9-1.3-5.1-1.6-7-.8-5.2-4.1-12-5.8-12-.8 0-1.7-.6-1.9-1.3-.4-.9-.6-.9-.6.1zM590 543.7c0 1.4 3.9 22.6 4.9 26.6.5 2 1.6 4.8 2.5 6.2 1 1.6 1.6 4.8 1.7 9.2.1 7.7.5 7.4 1.4-1 .5-4.7.9-5.6 2-4.7 1.6 1.3 2 .6 2.4-3.8.2-2.2-.5-4.3-2.1-6.5-2.4-3.2-7.3-14.3-9.8-22.5-.7-2.3-1.7-4.2-2.2-4.2-.4 0-.8.3-.8.7zM252 599.4c0 1.5.7 2.9 1.5 3.2.8.4 1.5 1.3 1.5 2.1 0 1.3 15.3 17.3 16.5 17.3 1.2 0-14.6-21.2-17.9-23.9-1.4-1.2-1.6-1-1.6 1.3zM596.6 613.5c-.3.9-.5 3.3-.5 5.3.2 3.3.2 3.2.9-1.3.8-5.3.6-6.6-.4-4zM373 620.7c1.6 2.7 4.2 6.2 5.7 7.9 1.5 1.8 5.3 6 8.3 9.5 8.3 9.6 17.2 18.9 18 18.9.4 0 .6-1.9.6-4.3-.1-4.6-3-8.2-4.6-5.7-.6.9-1 .7-1.5-.9-.3-1.1-1-2.1-1.5-2.1-.4 0-1-.9-1.3-2-.4-1.4-1.1-1.8-2.4-1.4-1.4.5-1.5.4-.3-.4 1.2-.9 1.2-1.4-.4-3.1-1.1-1.2-2.5-2.1-3.3-2.1-.7 0-1.3-.7-1.3-1.6 0-1-.6-1.4-1.5-1-.8.3-1.4.2-1.3-.2.4-1.4-2.3-5.2-3.7-5.2-.8 0-1.5-.7-1.5-1.6 0-1-.6-1.4-1.5-1-1 .3-2-.5-3-2.4-.9-1.7-2-3-2.5-3-.6 0-1-.7-1-1.5s-.7-1.5-1.5-1.5c-1.1 0-.7 1.2 1.5 4.7zM446.5 647c-.3.5.1 1 1 1s1.3-.5 1-1c-.3-.6-.8-1-1-1-.2 0-.7.4-1 1zM598.1 660.6c0 1.1.3 1.4.6.6.3-.7.2-1.6-.1-1.9-.3-.4-.6.2-.5 1.3zM598 678.8c0 3.4.4 6.2.8 6.2 1 0 .8-10.7-.2-11.7-.3-.3-.6 2.1-.6 5.5zM222.1 693.6c0 1.1.3 1.4.6.6.3-.7.2-1.6-.1-1.9-.3-.4-.6.2-.5 1.3zM599.2 696c0 1.4.2 1.9.5 1.2.2-.6.2-1.8 0-2.5-.3-.6-.5-.1-.5 1.3zM469.3 701.2c-2.8.6-4.3 1.5-4.3 2.5 0 2.5-3.2 7.1-5.9 8.3-5.8 2.8-19.7 8-21.1 8-.9 0-2.1.5-2.8 1.2-.6.6-1.5.8-1.9.4-.4-.4-.1-1.1.6-1.5 1.9-1.2.4-3.1-2.4-3.1-2.6 0-6.9 4.6-6.1 6.6.2.6-2.4 3.7-5.9 6.8-4.7 4.2-7.3 7.5-9.7 12.4-3.3 6.7-3.3 6.7-3.4 22.8 0 8.8-.3 16.4-.6 17-.3.5-.9 3.2-1.3 6-.6 4.5-.4 5.4 1.9 8.1 2.3 2.7 2.4 3.2.9 3.7-1.5.6-1.3 1 1.1 3.1 2.7 2.3 2.8 2.5.9 3.2-1.9.8-2 .9-.1 3.8 1.8 2.9 1.8 2.9 2.4.7.4-1.2 1.3-2.2 2-2.2.8 0 1.4-.8 1.4-1.7 0-1.4.2-1.5 1.3-.4 1 1 .9 1.5-.5 2.5-3.1 2.3-2.1 5.8 3.1 10.8 2.7 2.7 5.4 4.8 6 4.8.6 0 2-1.3 3.2-3 2.5-3.3 4.2-3.1 3.3.6-.7 2.6.7 3.2 2.5 1 .9-1.1 2.1-1 7.4.9 3.4 1.3 9.8 3 14.2 4 9.3 1.9 13.5 3.4 13.5 4.6 0 .5-.5.8-1.1.6-.6-.1-1.6.7-2.2 1.8-.7 1.1-1.5 2.2-1.8 2.5-.4.3-.8 1.4-1.1 2.5-.3 1.6-1 1.9-3.4 1.7-1.6-.1-4.7.5-6.8 1.3l-3.9 1.6 2.9 1.8c2.4 1.4 3.1 1.5 3.9.4.7-.8 2.2-1.1 4.7-.7 2.7.5 3.9 1.3 4.6 3.3 1.7 4.2 2.2 7.5 1.4 8.7-.4.6-4.7 3.6-9.7 6.7-10.6 6.7-13.8 9.4-16.3 13.9-1 1.8-2.3 3.3-2.8 3.3-.6 0-2.8 1.4-4.9 3.1-2.2 1.7-4.8 3.3-5.7 3.7-1.8.7-1.4 4.5.8 6.2 1.6 1.2.7 6.8-1 6.2-.6-.3-2.2 1.1-3.6 3s-4 5.1-5.8 7.1c-4.6 5.1-6.3 8.7-6.7 14.1-.5 5.8 1.1 9.5 4.7 10.9 1.6.6 3.2 1.2 3.6 1.3 2.1.9 4.8 6.7 4.7 10-.2 3.4-3.3 7.9-5.3 7.9-.5 0-1.7.9-2.7 2l-1.8 2 56.9-.2 56.9-.3.1-3.5c.1-6.3.4-6.9 2.7-7.2 1.7-.2 2.1-.9 1.9-2.8-.2-2.3-.1-2.3 1.2.5 1.7 3.5 2.1 1.9.6-2-.9-2.4-1.2-2.6-2.7-1.4-1.4 1.2-1.6 1.2-.9 0 .7-1 .3-1.2-1.3-.6-1.5.4-2.1.2-2.1-.9 0-.8.5-1.8 1.1-2.1.7-.5.5-1.3-.6-2.5-1-1.2-2-4.8-2.5-9.2-.5-4-1.3-10.4-1.9-14.2-.5-3.8-.8-7.2-.6-7.6.8-1.3 6.5.2 6.5 1.7 0 .8.6 1.3 1.2 1.1.7-.3 1.8.5 2.3 1.6.6 1.2 1.6 2.2 2.3 2.2.7.1 1.7.2 2.2.3.6 0 1 .7 1 1.5 0 2 2.9 4.8 4.2 4 .6-.4 2.4-.7 3.9-.6 1.6 0 2.9-.4 2.9-.9 0-.6.5-.7 1.1-.4.6.4.8 1.3.5 2.1-.3.7-.1 1.6.4 1.9.5.3 1.2 2.6 1.6 5 .6 4.3 1.8 5.8 2.6 3.3.7-2.1 3.8 0 3.8 2.7 0 1.4-.4 2.5-.9 2.5s-1.1.6-1.4 1.4c-.3.8.1 1.3 1.1 1.2 1.4-.1 1.6.7 1.4 3.7-.4 5.2.9 6.5 6.2 6.2 4.5-.3 4.6-.2 3.7 4.7 0 .5-.9.8-1.9.8-1 0-2.8.7-4 1.6-1.9 1.3-2.6 1.3-3.8.3-1.3-1.1-1.4-.9-.8 1.7.9 3.7 1.3 4.4 2.6 4.4.5 0 .8-.7.4-1.5-.3-.8-.1-1.5.4-1.5.6 0 1 .7 1 1.5 0 2.2 5.9 2 7.6-.3.8-1.1 2.6-1.7 5.5-1.7 4.1 0 4.3-.1 5.2-3.7.7-2.8 1.4-3.8 2.8-3.8 1.1 0 2.4-1.1 3.1-2.5 1.2-2.7 3.8-3.4 3.8-1 0 .8-.5 1.5-1 1.5-.6 0-.8 1.1-.4 2.6.5 1.9.3 2.5-.4 2-.7-.4-1-.2-.6.7.3.9-.8 1.8-3.6 2.7-2.2.7-4 1.9-4 2.6 0 .7-1.2 1.5-2.7 1.7-1.6.2 7.7.5 20.5.6l23.4.1-.6-3.8c-.5-3.5-2.4-21.4-3-29.2-.2-1.9-.6-5.1-.9-7-.4-1.9-.9-10.9-1.2-20-.6-17.9-.8-20.3-3-38.8-.9-6.8-1.2-12.8-.9-13.4.5-.7.2-.8-.6-.3-.7.4-1.5.2-2-.4-.5-.8-1.4-.1-2.8 2.3-1.2 2-2.8 3.6-3.7 3.6-.8 0-1.5.4-1.5 1 0 1.7-3.9 1.1-5.9-.9-1.1-1.1-2.2-1.7-2.5-1.4-.3.3-1.9.7-3.6.9-1.8.2-4.2 1.6-5.8 3.3-3.7 3.9-5.7 4.8-12.9 5.6-6.7.7-7.6 1.7-4.1 4.4 2.2 1.9 1.8 4.1-.8 4.1-.8 0-1.2.4-.9 1 .9 1.5-1.1 1.2-2.4-.3-.6-.8-.7-1.7-.3-2.1.4-.4-1-.6-3-.5-2 .2-4 0-4.4-.4-.4-.4-2.1-.7-3.8-.7-3 0-3 0-.8 1.6 2.7 1.9 2.9 6 .2 7.4-1.5.8-2.1.6-3-.9-1.2-2.3-.3-5.4 1.3-4.4.6.4.7.1.2-.7-.6-1-1.7-.3-4.2 2.6-1.9 2.1-4.1 4.7-5.1 5.7-.9 1-1.5 3.1-1.4 4.9.3 3.4-1.1 4.9-7.5 7.9-4.1 1.9-5.6 3.2-3.2 2.7.6-.2 1.3.5 1.4 1.5.3 1.5.1 1.6-1.1.6-1.1-.9-1.4-.8-1.4.4 0 .9-.9 2.1-2 2.7-1.2.7-2 .7-2 .1 0-.5-.9-1.3-2-1.6-1.1-.4-1.8-1.1-1.4-1.6.3-.6-.2-.9-1.2-.7-2.2.4-3.2-3.1-1.4-4.2 1.3-.8 0-5.8-4.8-18.5-4.5-12.1-8.1-23.8-8.7-28.5-.5-3.4-1-4.8-1.5-3.9-.6.9-1.1.5-1.6-1.5-.4-1.9-.2-3.1.6-3.6 1.6-1 .8-9.9-1.1-11-.9-.6-.9-1.2.4-2.5s1.7-3.7 1.8-10.3c.1-4.8.3-10.4.4-12.5.2-2 0-3.7-.6-3.7-.5 0-.9.8-.9 1.7 0 1.4-.3 1.3-1.6-.5-1.2-1.7-1.4-3.6-1-7.5l.6-5.2-1.4 4.5c-.7 2.5-2.1 7.6-3 11.4-1.7 7.2-2.2 8.4-3.2 7.3-.4-.4-.2-1.9.4-3.4.6-1.5 1.3-5.1 1.5-8 .4-4.5.2-5.2-1.5-5.6-1.2-.4-1.7-1-1.3-1.7.4-.7.2-2.3-.6-3.6-1.4-2.8-.2-4.9 2.9-4.9 1.4 0 1.6-.8 1.4-4.3-.5-5.7 1.4-5.3 2.3.5.9 5.9 1.6 7.3 2.6 4.7.6-1.6.8-1.5 1.4 1.1 1.5 6.9 2.3 6.7 1.9-.5-1.2-19.9-5.6-40.9-12.9-62-6.7-19-6.7-19-11.8-18.9-2.3.1-6.1.5-8.4 1.1zm10.3 13.3c-.6 2.2-.9 2.5-2.1 1.5-1.8-1.5-1.9-3.2-.3-4.8 1.8-1.8 3.2.2 2.4 3.3zM417 739.4c0 1.6-1.8 3.1-2.7 2.2-.8-.8.5-3.6 1.7-3.6.5 0 1 .6 1 1.4zm7.5 1.8c.7 1.8 2.3 4.4 3.4 5.7 1.2 1.3 2.1 3 2.1 3.8 0 .7.5 1.3 1 1.3.7 0 .7.6.1 1.9-.8 1.5-.7 2 .5 2.5 1.1.4 1.4 1.3 1 3.1-.4 1.7 0 3.1 1.3 4.4 1.7 1.7 1.8 2.2.5 3.9-1.3 1.9-1.3 2.8.3 6.9.3 1 .7 2.2.8 2.8 0 .5.6.9 1.2.8.6-.1.9.6.6 1.7-.3 1.2-1.4 2-2.6 2-1.2 0-4.2 2.2-6.9 5l-4.8 5-3.9-2.4c-5.6-3.6-6.6-7.2-6.6-24.6.1-15.8.9-19.1 6.1-24.3 3.4-3.5 4.2-3.4 5.9.5zm5 51.9c-.4.5-.4 2.1-.1 3.4.5 1.9 1.4 2.4 4.4 2.7 3.3.3 3.7.6 3.4 2.8-.4 4.3-1.1 5.5-2.4 4.2-1.2-1.2-4.8-1.7-4.8-.7 0 .3.7 1.7 1.6 3.1.9 1.3 1.5 2.7 1.2 2.9-.6.6-8.8-6.4-8.8-7.6 0-.5 1.5-.9 3.4-.9s3.6-.6 3.9-1.4c.4-1-.6-1.2-4.8-.9-5.2.5-5.4.4-7-2.7-2.1-4-1-5.3 1.5-2l1.9 2.5 3.3-3.3c3.4-3.3 4.4-4 3.3-2.1zm-19.5.9c0 .5-.2 1-.4 1-.3 0-.8-.5-1.1-1-.3-.6-.1-1 .4-1 .6 0 1.1.4 1.1 1zm90.6 11.8c-1.2 1.1-1.8-.7-1-3l.8-2.3.4 2.3c.2 1.3.1 2.6-.2 3zm-80.5 7.9c-.8 1.5-1 1.5-1.1.2 0-1.7 1-3.2 1.8-2.5.2.3-.1 1.3-.7 2.3zm5.2.1c.4-1 .8-.9 2.1.3 1.4 1.3 1.5 2 .5 4.2-1.4 3.1-3.9 3.6-3.9.8 0-1.1-.4-2.3-1-2.6-.5-.3-1-1.3-1-2.2 0-1.2.3-1.3 1.4-.4 1.1.9 1.5.9 1.9-.1zm46.2 43.1c-.9 1.6-2.5.3-1.8-1.5.4-1 .9-1.2 1.5-.6s.7 1.5.3 2.1zm34.4.8c1.4 5 1.4 5.3-.7 5.3-1 0-2.2.4-2.8 1-.9.9-.8-5.8.1-8.8.8-2.3 2.4-1.2 3.4 2.5zm-7 10.3c3 1.6 7.7 9.9 11.1 19.5 1.7 4.9 3.8 10 4.6 11.3 1.2 1.9 1.3 2.6.3 3.8-1.8 2.2-5.4 1.4-5.4-1.3 0-1.1-.3-2.5-.7-2.9-.5-.4-.8-2.1-.8-3.7 0-1.8-1.6-5.3-4-8.9-2.2-3.3-4-6.2-4-6.5 0-.3-1-1.9-2.2-3.6-1.8-2.5-1.9-2.9-.5-2.4 2.2.8 2.2-1.1.1-4.1-1.7-2.4-1.3-2.7 1.5-1.2zm-46.3 17.5c-.2.7 0 1.7.6 2.3 1.1 1.1.2 5.2-1.3 5.2-.5 0-.9-.5-.9-1.1 0-.5-.5-.7-1.1-.4-.6.4-.8 1.4-.5 2.2.5 1.1.2 1.3-.9.9-.9-.3-2.6.1-3.9.9-2.6 1.7-6.8 1.5-7.4-.4-.2-.7.5-2.2 1.5-3.4 1.1-1.2 2.7-3.5 3.7-5.1 1.6-2.5 2.2-2.8 5.7-2.3 3.6.5 3.9.4 2.7-1.1-1.2-1.5-1.1-1.6.5-.3 1 .8 1.6 2 1.3 2.6zm96.7 2.4c-1 1.2-1.8 2.5-1.8 2.9-.1 3.6-4.2 4.2-4.2.6 0-1.9.8-3.1 2.8-4.3 1.6-.9 2.9-2 2.9-2.6 0-.5.5-.4 1.1.2.8.8.6 1.7-.8 3.2zM544 896c0 .5-.2 1-.4 1-.3 0-.8-.5-1.1-1-.3-.6-.1-1 .4-1 .6 0 1.1.4 1.1 1zm-105 5.4c0 .8-.4 1.7-.9 2.1-1.2.7-2.4-1.2-1.6-2.5.9-1.5 2.5-1.2 2.5.4zM562 935c0 .5-.4 1-1 1-.5 0-1-.5-1-1 0-.6.5-1 1-1 .6 0 1 .4 1 1zm17.5 5c0 1.4.4 3.1.8 3.7 1.3 2 0 3.1-3.5 2.9-2.4-.2-3.3-.7-3.2-1.9.1-.9-.2-1.4-.7-1.1-1.1.6-2.4-2.4-1.5-3.3.3-.4 1.2-.1 1.8.5.7.7 1.6 1.2 2.2 1.2.5 0 .2-.6-.9-1.3-2.4-1.8-1-3.9 2.3-3.5 2.1.2 2.7.8 2.7 2.8zm33.5-1.4c0 .8-.5 1.2-1 .9-.6-.4-.8-1.1-.5-1.6.9-1.4 1.5-1.1 1.5.7zm-18.4 9.9c.1 1.5-.2 2.5-.8 2.3-.5-.2-.9-.7-.9-1.1.1-.4.1-1.4.1-2.2 0-2.6 1.5-1.6 1.6 1zm-16.6.5c0 .5-.4 1-1 1-.5 0-1-.5-1-1 0-.6.5-1 1-1 .6 0 1 .4 1 1zm2.7 1.2c-.3.8-.6.5-.6-.6-.1-1.1.2-1.7.5-1.3.3.3.4 1.2.1 1.9z"/><path d="M421 785.5c0 .9.6 1.2 1.5.9.8-.4 1.5-1 1.5-1.5s-.7-.9-1.5-.9-1.5.7-1.5 1.5zM502 877.9c0 .6.4 1.3 1 1.6.6.3.7-.1.4-.9-.7-1.8-1.4-2.1-1.4-.7zM600.1 714.7c-.1 1.8.4 3.3.9 3.3 1.2 0 1.2-1.7 0-4.5-.7-1.7-.9-1.5-.9 1.2zM601.8 739.6c-.1 4.3-.1 9.4.1 11.1.2 3.9-1.3 4.2-4.6 1.1-1.3-1.2-2.6-1.8-3-1.5-.3.4 1.5 2.6 4 4.9 5.2 4.6 5.8 6.9 2.5 9.2l-2.2 1.6h2.2c1.9 0 2.2.5 2.2 3.5 0 1.9-.5 3.5-1.1 3.5-.8 0-.8.5.1 1.5 1.2 1.4 1.1 2.9-.5 6.8-.6 1.3-.3 1.6.9 1.1 1.3-.5 1.6.1 1.8 2.7.1 1.9.2 4.1.4 4.9.1.8.3 2.6.4 4 .1 2.5.1 2.5 1 .2.5-1.2 1.4-2.2 2-2.2 1.6 0 1.2-2.7-.6-3.4-1.1-.4-1.4-1.2-.9-2.4.4-.9.7-3.5.7-5.7-.1-2.2.1-3.4.4-2.8.9 2.2 2.4 1.4 2.4-1.1 0-1.3-.7-2.7-1.6-3-1.3-.5-1.5-1.5-1-4.5.4-2.6.1-4.9-.9-6.7-1-2.1-1.1-3-.3-3.5.9-.6.9-1.1 0-2.1-.8-1-.8-1.8-.1-2.5 2.2-2.2 1.9-7-.7-9.8-1.9-2-2.4-3.6-2.2-7.1 0-2.4-.2-4.7-.5-5.1-.4-.3-.8 2.9-.9 7.3z"/><path d="M577.2 755.9c-.9.5 1.1 1.8 5.8 3.9 7.3 3.3 10.4 3.8 13 2.2 1-.7.4-.8-2-.4-4.6.8-6.7-1.3-4.9-4.8 1.2-2.2 1.1-2.3-.8-.6-2.4 2.2-7.9 2.4-9 .3-.5-.8-1.3-1.1-2.1-.6zM221.2 762c0 1.4.2 1.9.5 1.2.2-.6.2-1.8 0-2.5-.3-.6-.5-.1-.5 1.3zM564.2 763.7c-2.2 2.5-3.9 3.4-5.2 3-2.4-.6-2.6.2-.4 1.7 1.4 1.1 1.2 1.6-1.4 4.4-1.7 1.8-2.6 3.2-2.1 3.2 1 0 12.9-14 12.9-15.2 0-1.1 0-1.1-3.8 2.9zM570.2 766.7c-1.7 2.6-2.8 5-2.5 5.3.3.3 1.3-.6 2.2-1.9.9-1.4 2.3-3.4 3.3-4.5 1.6-2 1.7-2 3.6-.3 1.1 1.1 2.9 1.7 3.9 1.5 1.4-.3 1-.8-1.8-2.6-2-1.2-4.1-2.2-4.6-2.2-.6 0-2.4 2.1-4.1 4.7zM548.4 767.7c-1.2 1.6-2.7 3.9-3.4 5.3-2.3 4.3 1.2.7 3.8-3.9 2.7-4.7 2.5-5.3-.4-1.4zM589.8 767.7c.7.3 1.6.2 1.9-.1.4-.3-.2-.6-1.3-.5-1.1 0-1.4.3-.6.6zM592.5 774.5c-3.4 5.1-3.8 7.5-1.3 7.5.6 0 2.4 1.4 4 3.1 1.6 1.7 3.2 2.8 3.5 2.5.3-.2-1.4-2.2-3.6-4.3l-4.2-3.9 2.6-4.7c1.5-2.7 3.1-4.4 3.7-4.1.7.4.8.2.4-.4-1.1-1.8-1.2-1.7-5.1 4.3zM533 771.6c.8.8 2.3 2 3.4 2.6 1.9 1 1.8.8-.3-1.6-2.6-2.7-5.3-3.7-3.1-1zM585.5 773.9c-.3.6-1.8.9-3.3.5l-2.7-.5 2.5 1.5c2.2 1.3 2.7 1.3 3.9.1.8-.8 1.2-1.7.9-2-.3-.4-.9-.2-1.3.4zM220.2 778.5c0 1.6.2 2.2.5 1.2.2-.9.2-2.3 0-3-.3-.6-.5.1-.5 1.8zM517.3 777.8c1.7 1.9 11.4 5.8 12.3 4.9.3-.2-.7-.7-2.1-1.1-2.7-.7-3.2-2.4-1.2-4.5.6-.8 0-.6-1.5.4-2.5 1.5-2.9 1.5-5 .1-3-2.1-4.5-2-2.5.2zM569.7 780.2c-3.7 5.1-5.7 8.2-5.7 8.9 0 .4 2.3 1.6 5.1 2.9 3.7 1.5 5.4 1.9 6.2 1.1.8-.8.6-1.1-.6-1.1-2.8 0-7.7-2.9-7.7-4.5 0-2 4.5-9.2 6.2-9.8.9-.4.9-.6.1-.6-.7-.1-2.3 1.4-3.6 3.1zM579.6 781.2c.3.5-.2 2.5-1.1 4.4-.9 2-1.4 3.8-1.2 4.1.3.2.8-.6 1.2-1.9.4-1.3 1.8-3.3 3.1-4.4l2.3-2.2-2.4-.5c-1.4-.2-2.2 0-1.9.5zM560.7 783.2c-1 1.1-1.7 2.2-1.4 2.4.2.2 1.2-.5 2.2-1.6 2.3-2.6 1.6-3.3-.8-.8zM351.3 786.5c4.3 4.4 5.7 5.3 5.7 3.7 0-1.4-7.2-8.2-8.6-8.2-.8 0 .5 2 2.9 4.5zM509.2 786.6c-1.9 2.5-3.2 4.7-3 4.9.6.6 3.4-1.9 5.3-4.8 1.7-2.6 1.9-2.7 4.1-1.2 2.8 1.8 3.1 1.3.7-1.5-2.5-2.8-3.4-2.5-7.1 2.6zM586.1 783.4c-.1 1.1-1.1 3-2.3 4.3-1.2 1.3-1.8 2.6-1.4 3 .3.4 1.4-.3 2.2-1.6 1.3-1.7 2.2-2.1 4.3-1.7l2.6.7-2.1-1.8c-1.2-1-2.4-2.5-2.7-3.3-.4-1.1-.6-1-.6.4zM333 784.7c0 2.1 10.1 11.3 12.3 11.2 1.5 0 1.7-.2.7-.6-.8-.3-2.3-1.2-3.2-2.1-1.6-1.3-1.6-1.7-.2-4.4l1.6-3-2.3 1.6c-3.1 2.1-3.6 2.1-6.4-1-1.4-1.5-2.5-2.2-2.5-1.7zM367 786.5c-1.1 1.3-1 1.4.4.9.9-.3 1.6-1 1.6-1.5 0-1.3-.6-1.1-2 .6zM220 790.3c0 2 .4 3.7 1 3.7.5 0 .7-1.4.3-3.3-.8-4.5-1.3-4.7-1.3-.4zM350.1 790.7c0 .6-.4 2-.7 3-.5 1.4-.4 1.5.5.7.7-.7 1.1-2 .8-3-.3-1.1-.5-1.4-.6-.7zM56 791.7c0 .5.9 1.9 2 3.3s2 2.9 2 3.5c.1 3.1 19.1 23.9 34.2 37.7 3.5 3.2 7.7 7 9.3 8.5 1.7 1.6 5.5 4.9 8.5 7.4 9.5 8 12.9 11.6 13.5 14.2.4 1.4.5 2.9.2 3.4-.3.4.1 3.9.9 7.8 1.3 7 1.3 7 .7-6-.3-7.2-.9-13.4-1.4-14-.6-.5-.9-.2-.9.8 0 1.2-1.5.3-5-3-8.8-8.6-18.5-17.3-20.7-18.8-3.6-2.5-10.3-9.3-10.3-10.4 0-.6-.6-1.1-1.4-1.1-.7 0-1.6-.9-1.9-2-.3-1.1-1.2-2-2.1-2-.9 0-1.6-.7-1.6-1.5s-.4-1.5-1-1.5c-.5 0-1-.7-1-1.5s-.6-1.5-1.4-1.5c-.7 0-2.4-1.6-3.7-3.5-1.3-1.9-2.7-3.5-3.1-3.5-1.2 0-6.8-5.8-6.8-7 0-.6-.4-.8-1-.5-.5.3-1.6-.9-2.4-2.7-2.2-5-5.7-8.7-5.6-6.1zM554.5 793.6c-.9 1.4-1.4 2.8-1.2 3.1.3.3 1.3-.9 2.2-2.6 1.9-3.8 1.4-4.1-1-.5zM561.1 792.6c0 1.2-1 3.1-2.1 4.4-1.1 1.3-1.8 2.5-1.5 2.8.3.3 1.4-.7 2.6-2.1 1.7-2.3 2.4-2.5 4.1-1.6 1.1.6 2.2.9 2.4.6.2-.2-.7-1-2.1-1.7-1.3-.7-2.6-2-2.8-2.9-.3-1.1-.5-1-.6.5zM332 793.1c0 1.7 2.7 4.5 3.5 3.7.3-.3-.3-1.6-1.4-2.9-1.6-1.9-2-2-2.1-.8zM533.1 792.9c-.8.5-.9 1.1-.3 1.5.5.3 1.5-.1 2.2-.9 1.4-1.6.3-2-1.9-.6zM519 793.8c0 .6.9 1.2 2 1.5 1.1.3 2 .3 2 .1 0-.2-.9-.8-2-1.4-1.1-.6-2-.7-2-.2zM537.9 796.7c-1.3 1.6-2 2.5-1.6 2.1.5-.3 2.9.2 5.4 1.3 5.1 2.2 5.3 2.2 5.3 1.1 0-.4-1.6-1.4-3.5-2.1-2.9-1-3.5-1.7-3-3.2.9-2.6.3-2.4-2.6.8zM219.8 815.2c-.2 11.2 0 20.7.5 21.2.4.6.7-8.5.7-20.2s-.2-21.2-.5-21.2c-.2 0-.6 9.1-.7 20.2zM514.1 801c-3.4 5.5-3.8 7-1.8 7 .7 0 2.9.9 5 2 3.6 2 5.7 1.9 5.7 0 0-.5-.6-.7-1.2-.5-.7.3-3-.5-5-1.8l-3.8-2.2 2.5-4.8c3.3-6.2 2.5-6-1.4.3zM524.7 797.1c.7.7 1.5 1 1.8.7.3-.3-.2-.9-1.2-1.2-1.4-.6-1.5-.5-.6.5zM508.1 801.3c-1.3 2.1-1.2 2.1.5.5 1-1 1.6-2 1.3-2.2-.3-.3-1.1.5-1.8 1.7zM529 800.1c0 .6-1.2 2.7-2.6 4.7l-2.6 3.7 3.1-3.5c2.7-3 4-6 2.6-6-.3 0-.5.5-.5 1.1zM524.1 801.6c0 1.1.3 1.4.6.6.3-.7.2-1.6-.1-1.9-.3-.4-.6.2-.5 1.3zM534.4 801.5c.3.8-.6 2.8-2 4.5-3.2 3.8-2.5 3.9 1.3.2 2.7-2.7 3.3-6.2 1.1-6.2-.5 0-.8.7-.4 1.5zM358.5 805c-1 1.1-1.3 2-.8 2 1.3 0 3.8-2.9 3.1-3.5-.3-.3-1.3.4-2.3 1.5zM339.6 807.8c-1.3 2.1-3.5 4.6-4.9 5.5-2.2 1.4-4.7 8.4-2.5 7 .5-.3 1.9.3 3.1 1.4l2.1 1.8-2.1-2.8c-1.9-2.5-2.2-5.7-.5-5.7.7 0 6.5 4.4 8.7 6.6.9.9 2 1.3 2.4.8 3.9-4.6 7.2-9.6 6.9-10.5-.2-.7-1.9 1.1-3.7 4-1.8 2.8-3.6 5.1-4 5.1-.4 0-2.2-1.5-4-3.4l-3.3-3.4 2.3-4.3c1.2-2.4 2.7-4.7 3.3-5.1.8-.6.7-.8-.1-.8-.7 0-2.4 1.7-3.7 3.8zM333.7 806.8c-1 1-1.6 2.9-1.6 4.3.1 2 .2 2.1.6.4.3-1.1 1.2-2.8 2.1-3.8.8-.9 1.3-1.9 1-2.2-.3-.3-1.2.3-2.1 1.3zM364.8 807.8c-1.3 1.6-3.1 3.1-3.9 3.4-1 .3-.8.8.9 1.7 1.9 1 2.2.9 2.2-.6 0-.9 1-2.7 2.2-4 1.2-1.3 1.9-2.5 1.6-2.8-.3-.3-1.6.7-3 2.3zM505.8 808.7c1.9.7 1.4 3.4-1 6.2l-2.3 2.6 2.5-2.1c1.4-1.2 3.2-2.4 4-2.7.9-.3 1-.6.3-.6-.7-.1-1.3-1-1.3-2.1 0-1.3-.6-2-1.7-1.9-1.1 0-1.3.3-.5.6zM357 815.4c-.5 1.3-1.9 3.1-3.1 4-1.3.8-2 1.8-1.6 2.2 1.1 1.2 6.4-4 6.4-6.4.1-2.9-.5-2.8-1.7.2zM400.1 814.6c0 1.1.3 1.4.6.6.3-.7.2-1.6-.1-1.9-.3-.4-.6.2-.5 1.3zM404.4 814.3c-.5.7-1.9 2.7-3 4.5-1.4 2.6-2.4 3.2-4.2 2.9-1.8-.3-2-.2-1.1.9.6.8 1.5 1.4 2 1.4 1.2 0 8.1-8.8 7.7-9.9-.1-.5-.8-.4-1.4.2zM408.1 820.2c-1.3 1.6-2.1 3.1-1.9 3.3.7.7 5.1-4.2 4.7-5.3-.2-.5-1.5.4-2.8 2zM459 838.2c0 1.9.2 2 1 .8 1.3-1.9 1.3-3 0-3-.5 0-1 1-1 2.2zM446 837.9c0 .6.5 1.3 1 1.6.6.3 1-.1 1-.9 0-.9-.4-1.6-1-1.6-.5 0-1 .4-1 .9zM219.6 839.8c-.3.5-.6 20.4-.7 44.3-.2 61.1 0 75.9.9 75.9.5 0 .8-27.2.8-60.5s-.1-60.5-.2-60.5c-.2 0-.5.4-.8.8zM572 846.7c-2.5 1.9-4.6 4.3-4.8 5.2-.3 1.4-.2 1.4.7.1.5-.8 1.3-1.1 1.7-.8.7.7 8.4-6 8.4-7.4 0-1.4-1.4-.8-6 2.9zM580 848.6c0 .9-.8 1.8-1.9 2.1-1 .2-2.4 1.6-3 2.9-1.4 3.1.3 3.2 3.2.1 1.2-1.3 3.2-2.9 4.5-3.6 2.5-1.4 2.1-3.1-.9-3.1-1.1 0-1.9.7-1.9 1.6zM590.8 849.2c-1.6.5-2.8 1.3-2.8 1.7 0 1.1 4.9.1 5.6-1.1.9-1.5.1-1.6-2.8-.6zM417.7 888.1c.7.7 1.5 1 1.8.7.3-.3-.2-.9-1.2-1.2-1.4-.6-1.5-.5-.6.5zM127 895.9c0 1.2.5 2.1 1 2.1.6 0 1-.6 1-1.4 0-.8-.4-1.8-1-2.1-.5-.3-1 .3-1 1.4zM128.2 901c0 1.4.2 1.9.5 1.2.2-.6.2-1.8 0-2.5-.3-.6-.5-.1-.5 1.3zM951.4 905.7c1.5 5.5 1.8 6.3 2.7 6.3.5 0 .9-1.8.9-4 0-3.4-.3-4-2.1-4-1.5 0-1.9.5-1.5 1.7zM128.2 909.5c0 1.6.2 2.2.5 1.2.2-.9.2-2.3 0-3-.3-.6-.5.1-.5 1.8zM408.2 914.3c-1.2 1.3-2.2 2.7-2.2 3.3 0 .5-1.6 2-3.5 3.2-4.4 3.1-8.8 2-9.3-2.2-.3-2.4-.6-2.5-1.9-1.4-1.3 1.1-1.8 1-2.6-.4-.9-1.4-1.6-1.1-4.9 2.4-2.1 2.2-3.8 4.4-3.8 4.9s-.5.9-1.1.9c-1.7 0-8.9 5.4-8.9 6.7 0 1.8-3.7 3.6-4.5 2.3-.4-.7-2-.1-4.2 1.6-2.8 2.1-3.7 2.4-4.4 1.3-.5-.8-.3-2.2.6-3.6.8-1.2 1.5-3.6 1.5-5.3 0-2.3-.4-3-2-3-2.8 0-2.5-1.4.5-3 2.2-1.2 2.4-1.6 1.1-2.8-.9-1-2.1-1.2-3.3-.7-1 .5-2.9 1-4.2 1.1-1.3.2-3.3 1.2-4.5 2.2-1.1 1.1-3.4 2.4-5.1 2.9-1.7.5-3.6 2.1-4.3 3.6-.7 1.5-1.7 2.7-2.2 2.7-.4 0-1.5.3-2.4.6-1.1.4-1.6.1-1.6-1 0-.9.8-1.6 1.7-1.6.9 0 1.4-.3 1-.6-.3-.4-2-.2-3.6.4-2.9 1-5.3 0-3.1-1.3.5-.3 1-1.3 1-2.2 0-1.3-.5-1.2-2.5.7-2.1 2-2.6 3.4-2.6 7.5 0 2.7-.2 9.8-.5 15.8l-.5 10.7h23.5c15.3 0 23.7-.4 24.1-1 .5-.8 1.1-.8 2 0 1 .9 1.7 0 2.9-3.8.9-2.7 3-7.1 4.7-9.7 4-6.3 17.9-20.5 20.1-20.5.9 0 2-.5 2.3-1 .3-.6 1.7-1 3.1-1 1.3 0 2.4-.1 2.4-.3 0-.1.9-2.6 1.9-5.5 1.1-2.8 1.8-5.2 1.7-5.2-.1 0-1.2 1-2.4 2.3zM340 930.5c0 .8-.4 1.5-1 1.5-.5 0-1-.7-1-1.5s.5-1.5 1-1.5c.6 0 1 .7 1 1.5zm24.5 5.5c-.3.5-1.2 1-1.8 1-.7 0-.6-.4.3-1 1.9-1.2 2.3-1.2 1.5 0zm-32.5 1c0 .5-.7 1-1.5 1s-1.5-.5-1.5-1c0-.6.7-1 1.5-1s1.5.4 1.5 1zm30 3.8c0 1.3-1.2 2.2-2.2 1.6-1-.6-.1-2.4 1.3-2.4.5 0 .9.4.9.8zM128 916.1c0 1.7.4 2.8 1 2.4.6-.3 1-1.7 1-3.1 0-1.3-.4-2.4-1-2.4-.5 0-1 1.4-1 3.1zM545 920.8c0 .5.7 1.5 1.5 2.2.8.7 1.5.8 1.5.2 0-.5-.7-1.5-1.5-2.2-.8-.7-1.5-.8-1.5-.2zM129 924.1c0 .5.5.7 1 .4.6-.3 1-.8 1-1.1 0-.2-.4-.4-1-.4-.5 0-1 .5-1 1.1zM544 923.3c0 .5.8 2.1 1.8 3.5 1 1.5 2.2 3.5 2.5 4.5.4 1 1.2 1.5 1.8 1.2.7-.5.5-1.3-.6-2.5-.8-.9-1.4-2.3-1.2-3.1.2-.8.2-1-.1-.5-.3.5-1.3-.2-2.3-1.5-1-1.3-1.9-2-1.9-1.6zM944 933.5c0 1.6-.6 2.5-1.5 2.5-.8 0-1.5.9-1.5 2s.5 2 1.2 2c.6 0 .4.6-.7 1.3-1.4 1.1-1.7 2.1-1.2 4.7.4 1.8.3 3.8-.2 4.4-.4.6-1.1 3-1.5 5.3l-.6 4.3h13.1v-4.8c0-14.7-.2-17.7-1.5-18.4-.8-.4-1.1-1.8-.8-3.3.4-2.2.1-2.5-2.2-2.5-2.1 0-2.6.5-2.6 2.5zM129 937c0 1.6.4 3 1 3 .5 0 .8-1.3.7-3-.3-3.9-1.7-3.9-1.7 0zM532 939.7c0 .5.9 1.4 2 2.1 1.1.7 2 .8 2 .2 0-.5-.9-1.4-2-2-1.1-.6-2-.7-2-.3zM727.1 941.6c0 1.1.3 1.4.6.6.3-.7.2-1.6-.1-1.9-.3-.4-.6.2-.5 1.3zM536.3 946.6c0 1.4.2 2.1.6 1.7.3-.4.9-1 1.2-1.3.4-.3.1-1-.6-1.7-1-.9-1.2-.6-1.2 1.3zM186.6 949.8c-.3.6-.1 1.4.5 1.7 1.5 1 2.5-.3 1.2-1.6-.7-.7-1.3-.7-1.7-.1zM564 951c-.9.6-1 1-.3 1 .6 0 1.5-.5 1.8-1 .8-1.2.4-1.2-1.5 0zM823 954.2c0 1.8.7 3.1 2.1 3.8 2.4 1.4 3.4.7 2.5-1.6-.4-.9-1-1.4-1.3-1-.4.4-1.3-.4-2-1.6l-1.2-2.3-.1 2.7zM836 955.5c-.7.8-.8 2-.3 2.9.7 1.2 1 1 2-1 1.3-2.7.1-4.1-1.7-1.9zM844.3 954.7c-.7.3-1.3 1.1-1.3 1.9 0 .8-1 1.9-2.2 2.4-1.9.7-1.6.9 2 .9 3.8.1 4.2-.1 4.2-2.3 0-2.7-.8-3.6-2.7-2.9z"/></svg>